<?xml version="1.0" encoding="utf-8"?>
<!-- Generator: Adobe Illustrator 25.3.1, SVG Export Plug-In . SVG Version: 6.00 Build 0)  -->
<svg version="1.1" id="圖層_2" xmlns="http://www.w3.org/2000/svg" xmlns:xlink="http://www.w3.org/1999/xlink" x="0px" y="0px"
	 viewBox="0 0 1530.71 283.46" style="enable-background:new 0 0 1530.71 283.46;" xml:space="preserve">
<g>
	<g>
		<g>
			<path d="M293.99,184.84c-5.48,0-9.92,4.44-9.92,9.92c0,5.48,4.44,9.92,9.92,9.92c5.48,0,9.92-4.44,9.92-9.92
				C303.91,189.28,299.47,184.84,293.99,184.84z"/>
			<path d="M20.06,224.52c5.48,0,9.92,4.44,9.92,9.92c0,5.48-4.44,9.92-9.92,9.92c-5.48,0-9.92-4.44-9.92-9.92
				C10.14,228.96,14.58,224.52,20.06,224.52z"/>
			<path d="M287.57,224.52h-68.59c-5.48,0-9.92-4.44-9.92-9.92c0-5.48,4.44-9.92,9.92-9.92h45.21c5.48,0,9.92-4.44,9.92-9.92
				c0-5.43-4.37-9.84-9.78-9.91c0,0-17.8,0-45.92,0c-38.94,0-61.14,13.91-61.14,13.91s-22.21-13.91-61.14-13.91
				c-28.12,0-74.56,0-74.56,0c-5.41,0.08-9.78,4.48-9.78,9.91c0,5.48,4.44,9.92,9.92,9.92h52.09c5.48,0,9.92,4.44,9.92,9.92
				c0,5.48-4.44,9.92-9.92,9.92H50.06c-5.48,0-9.92,4.44-9.92,9.92c0,5.48,4.44,9.92,9.92,9.92H60.1c5.48,0,9.92,4.44,9.92,9.92
				c0,5.48-4.44,9.92-9.92,9.92H50.06c-5.48,0-9.92,4.44-9.92,9.92c0,5.48,4.44,9.92,9.92,9.92h60.43c5.48,0,9.92-4.44,9.92-9.92
				c0-5.48-4.44-9.92-9.92-9.92l-7.36-0.02c-5.47,0-9.91-4.63-9.91-9.91c0-5.28,4.44-9.91,9.91-9.91h88.75
				c5.47,0,9.91,4.44,9.91,9.91c0,5.47-4.44,9.91-9.91,9.91l-35.64,0.02c-5.48,0-9.92,4.44-9.92,9.92c0,5.48,4.44,9.92,9.92,9.92
				h104.67c5.48,0,9.92-4.44,9.92-9.92c0-5.48-4.44-9.92-9.92-9.92h-10.04c-5.48,0-9.92-4.44-9.92-9.92c0-5.48,4.44-9.92,9.92-9.92
				h36.7c5.48,0,9.92-4.44,9.92-9.92C297.5,228.96,293.05,224.52,287.57,224.52z M131.4,224.52h-22.9c-5.67,0-10.27-4.8-10.27-10.27
				c0-5.47,4.6-10.27,10.27-10.27h22.9c5.67,0,10.27,4.6,10.27,10.27C141.67,219.92,137.07,224.52,131.4,224.52z"/>
		</g>
		<g>
			<polygon points="157.03,44.88 182.18,27.94 166.1,54.44 182.18,80.95 157.03,64 131.87,80.95 147.95,54.44 131.87,27.94 			"/>
			<polygon points="162.42,48.75 201.91,54.44 162.42,60.13 157.03,108.3 151.63,60.13 112.14,54.44 151.63,48.75 157.03,0.58 			
				"/>
		</g>
		<g>
			<g>
				<path d="M157.03,170.14c-16.19-20.99-39.4-31.82-64.34-41.6c-16.25-6.37-64.04-23.32-81.74-29.46l11.95,27.43
					c25.96,5.77,56.97,12.13,67.13,14.51C104.48,144.42,137.87,153.46,157.03,170.14z"/>
				<path d="M99.39,108.83c-10.15-6.51-70.87-43.02-70.88-43.01l6.55,28.11c24.12,9.9,54.04,22.69,61.36,26.49
					c17.21,8.93,44.42,20.43,59.52,46.15C144.85,136.75,119.32,121.63,99.39,108.83z"/>
				<path d="M117.51,91.52c-6.73-6.04-21.78-20.35-64.05-53.15l1.53,28.05c17.4,11.81,40.87,27.68,46.93,32.04
					c24.23,17.43,45.24,32.49,54.36,64.57C154.71,127.03,133.88,106.21,117.51,91.52z"/>
			</g>
			<g>
				<path d="M157.03,170.14c16.19-20.99,39.4-31.82,64.34-41.6c16.25-6.37,64.04-23.32,81.74-29.46l-11.95,27.43
					c-25.96,5.77-56.97,12.13-67.13,14.51C209.57,144.42,176.18,153.46,157.03,170.14z"/>
				<path d="M214.66,108.83c10.15-6.51,70.87-43.02,70.88-43.01l-6.55,28.11c-24.12,9.9-54.04,22.69-61.36,26.49
					c-17.21,8.93-44.42,20.43-59.52,46.15C169.2,136.75,194.73,121.63,214.66,108.83z"/>
				<path d="M196.54,91.52c6.73-6.04,21.78-20.35,64.05-53.15l-1.53,28.05c-17.4,11.81-40.87,27.68-46.93,32.04
					c-24.23,17.43-45.24,32.49-54.36,64.57C159.34,127.03,180.17,106.21,196.54,91.52z"/>
			</g>
		</g>
		<path d="M157.03,170.17c-1.35-0.79-37.34-26.56-155.91-30.38l16.35,30.59c70.42,0,118.75,6.67,139.55,19.27
			c20.8-12.6,69.14-19.27,139.55-19.27l16.35-30.59C194.37,143.6,158.37,169.38,157.03,170.17z"/>
	</g>
	<g>
		<g>
			<path d="M1179.84,130.63c0-13.73,0-23.74,0-23.74h-16.55c0,0,0,10.03,0,23.74h-17.61l0,0v10.2h17.61v31.82l-16.5,4.6v10.47
				l16.5-4.6c0,13.28,0,20.69,0,22.06c0,4.44-1.88,6.4-7.57,6.4h-10.04v8.69c0,0,9.36,0,19.36,0s14.79-5.19,14.79-12.19
				c0-2.37,0-29.25,0-29.25l15.13-4.23v-10.47l-15.13,4.23v-27.53h16.24v-10.2H1179.84z"/>
			<g>
				<path d="M1503.45,181.13c2.25-4.44,0.97-10.32-7.26-10.32h-60.81v8.84h52.99l-4.94,10.35h-71.3v8.84h70.59c0,1.7,0,3.15,0,4.75
					c0,4.44-1.88,6.4-7.57,6.4c-5.7,0-33.69,0-33.69,0v8.84c0,0,32.22,0,42.22,0s14.79-5.19,14.79-12.19c0-2.58,0-5.34,0-7.8h33.35
					V190h-32.64L1503.45,181.13z"/>
				<polygon points="1487.77,131.1 1487.77,123.29 1480.13,119.71 1487.77,116.12 1487.77,108.31 1471.8,115.8 1455.83,108.31 
					1455.83,116.12 1463.47,119.71 1455.83,123.29 1455.83,131.1 1471.8,123.61 				"/>
				<polygon points="1487.77,155.06 1487.77,147.25 1480.13,143.67 1487.77,140.09 1487.77,132.27 1471.8,139.76 1455.83,132.27 
					1455.83,140.09 1463.47,143.67 1455.83,147.25 1455.83,155.06 1471.8,147.57 				"/>
				<polygon points="1525.07,156.25 1525.07,110.42 1493.12,108.31 1493.02,108.31 1493.02,117.16 1509.32,118.2 1509.32,124.69 
					1493.12,124.69 1493.12,124.69 1493.02,124.69 1493.02,133.53 1509.32,133.53 1509.32,140.66 1493.12,140.66 1493.12,140.67 
					1493.02,140.67 1493.02,149.51 1509.32,149.51 1509.32,156.23 1434.28,156.23 1434.28,149.51 1450.48,149.51 1450.48,140.67 
					1450.48,140.66 1434.28,140.66 1434.28,133.93 1450.48,133.93 1450.48,125.09 1450.48,125.09 1434.28,125.09 1434.28,118.92 
					1450.48,117.68 1450.48,108.31 1418.53,110.71 1418.53,156.23 1412.14,156.23 1412.14,181.71 1427.89,181.71 1427.89,165.09 
					1516.08,165.09 1516.08,181.79 1531.83,181.79 1531.83,156.25 				"/>
			</g>
			<g>
				<path d="M787.08,157.86c5.11,0,9.26-3.73,9.26-8.33v-15.78h-93.88v15.78c0,4.6,4.15,8.33,9.26,8.33H787.08z M720.21,142.59
					h58.38v6.42h-58.38V142.59z"/>
				<polygon points="687.47,164.33 687.47,219.71 705.22,219.71 705.22,173.18 792.19,173.18 792.19,219.71 809.94,219.71 
					809.94,164.33 				"/>
				<path d="M714.54,180.07v23.03c0,4.6,4.15,8.33,9.26,8.33h49.81c5.11,0,9.26-3.73,9.26-8.33v-23.03H714.54z M765.12,188.91v13.68
					h-32.83v-13.68H765.12z"/>
				<polygon points="758.55,118.42 758.55,107.45 738.83,107.45 738.83,118.42 684.13,118.42 684.13,127.27 813.28,127.27 
					813.28,118.42 				"/>
			</g>
			<g>
				<path d="M997.7,175.04c0,11.72-2.15,36.65-10.56,45.22h7.2c13.89-11.83,16.2-39.83,16.2-45.22v-22.27H997.7V175.04z"/>
				<path d="M1051.24,152.78h-12.84v22.27c0,5.4,2.31,33.4,16.2,45.22h7.2c-8.41-8.58-10.56-33.5-10.56-45.22V152.78z"/>
				<rect x="1061.72" y="121.51" width="31.55" height="9.64"/>
				<rect x="1061.72" y="148.33" width="31.55" height="9.64"/>
				<polygon points="1053.2,142.68 1053.2,132.48 1032.34,132.48 1032.34,119.09 1049.32,119.09 1049.32,108.88 999.43,108.88 
					999.43,115.69 999.43,119.09 1016.42,119.09 1016.42,132.48 995.55,132.48 995.55,142.68 1016.42,142.68 1016.42,220.27 
					1032.34,220.27 1032.34,142.68 				"/>
				<polygon points="1117.91,174.36 1117.91,106.88 1100.73,106.88 1100.73,174.36 1056.95,174.36 1056.95,184.57 1100.73,184.57 
					1100.73,220.27 1117.91,220.27 1117.91,184.57 1131.63,184.57 1131.63,174.36 				"/>
			</g>
			<g>
				<path d="M893.69,128.63v-10.2h-31.87l0.77-11.54h-16.15l-0.81,11.54h-9.83v10.2h9.12l-2.59,36.95
					c-1.65,24.04-5.26,41.19-11.11,54.69h8.03c0,0,15.76-11.92,19.61-57.51l2.28-34.13H893.69z"/>
				<path d="M885.74,208.09h-8.84l4.9-71.91h-15.93l-5.73,84.09c0,0,20.95,0,23.19,0c6.2,0,9.95-4.37,9.95-8.03s0-20.99,0-20.99
					h-7.57L885.74,208.09z"/>
				<path d="M969.19,136.41v-10.2h-16.04v-15.85h-16.55v15.85h-13.83l8.1-15.85h-17.97l-22.22,43.47h13.33v66.44h65.18v-10.2h-16.04
					v-17.75h16.04v-10.2h-16.04v-17.75h16.04v-10.2h-16.04v-17.75H969.19z M936.61,210.06h-16.04v-17.75h16.04V210.06z
					 M936.61,182.11h-16.04v-17.75h16.04V182.11z M936.61,154.16h-16.04v-17.75h16.04V154.16z"/>
			</g>
			<g>
				<polygon points="663.97,212.34 663.95,212.34 663.95,208.94 630.48,208.94 646.27,135.18 628.43,135.18 612.64,208.94 
					591.83,208.94 576.04,135.18 558.2,135.18 573.99,208.94 540.49,208.94 540.49,219.14 663.95,219.14 663.95,219.12 
					663.97,219.12 				"/>
				<polygon points="663.95,118.42 611.67,118.42 611.67,108.01 592.75,108.01 592.75,118.42 540.49,118.42 540.49,128.63 
					663.95,128.63 				"/>
			</g>
			<path d="M1244.33,194.26c17.25-17.02,25.3-37.14,25.3-50.34h-25.04v-13.75h26.53v-10.2h-26.53v-13.08h-16.24v13.08h-26.53v10.2
				h26.53v13.75h-25.04c0,13.2,8.05,33.33,25.3,50.34c-7.77,7.73-17.57,13.31-29.79,18.12v7.89c15.53-4.44,27.86-11.27,37.64-19.06
				c9.78,7.78,22.11,14.61,37.64,19.06v-7.89C1261.9,207.57,1252.11,201.99,1244.33,194.26z M1220.9,150.75h31.16
				c-1.3,10.07-6.63,23.8-15.58,34.59C1227.54,174.56,1222.2,160.82,1220.9,150.75z"/>
			<path d="M1356.28,141.46h47.04v-11.34h-47.16v-23.24h-19.07v23.24h-47.16v11.34h47.04c-1.17,20.72-15.33,58.83-50.69,70.92v7.89
				c34.08-8.82,51.57-28.22,60.34-46.08c8.77,17.86,26.25,37.25,60.34,46.08v-7.89C1371.61,200.29,1357.44,162.18,1356.28,141.46z"
				/>
			<g>
				<rect x="422.12" y="192.87" width="36.24" height="8.84"/>
				<path d="M429.53,183.81h21.42c4.09,0,7.41-2.98,7.41-6.67v-33.79h-36.24v33.79C422.12,180.82,425.43,183.81,429.53,183.81z
					 M435.97,152.19h8.52v22.77h-8.52V152.19z"/>
				<path d="M397.97,108.01v111.13v0h123.46V108.01H397.97z M483.14,115.79v9.64h-7.9l-1.08-9.64H483.14z M415.32,115.79h44.89
					l1.07,9.64h-45.97V115.79z M461.29,210.29h-45.97v-76.01h46.92l2.65,25.06c1.52,12.19,5.08,21.81,9.91,29.36
					c-3.4,5.01-7.8,9.86-13.52,14.22V210.29z M464.58,210.29c6.66-4.4,12.08-9.17,16.47-14.05c6.46,6.96,11.95,10.69,19.36,14.05
					H464.58z M504.06,203.15c-7.24-3.53-12.14-9.33-15.86-15.85c2.39-3.61,11.51-16.78,11.55-43.56h-13.21
					c-0.01,0.19,0.98,17.68-4.29,29.84c-3.13-8.36-6.16-39.31-6.16-39.31h27.96V203.15z M504.06,125.44h-8.7v-9.64h8.7V125.44z"/>
			</g>
		</g>
		<g>
			<g>
				<g>
					<path d="M397.97,274.55v-28.97h6.44l8,12.43c2.07,3.22,3.86,6.58,5.29,9.71h0.09c-0.37-3.87-0.51-7.61-0.51-12.03v-10.1h5.24
						v28.97h-5.84l-8.09-12.72c-1.98-3.18-4.05-6.75-5.56-10.02l-0.14,0.04c0.23,3.74,0.27,7.57,0.27,12.34v10.36H397.97z"/>
					<path d="M441.42,274.55l-0.37-2.32h-0.14c-1.38,1.63-3.72,2.79-6.62,2.79c-4.5,0-7.03-3.05-7.03-6.23
						c0-5.29,5.01-7.96,13.29-7.91v-0.34c0-1.38-0.6-3.66-4.55-3.66c-2.21,0-4.51,0.64-6.02,1.55l-1.1-3.44
						c1.66-0.95,4.55-1.85,8.09-1.85c7.17,0,9.24,4.25,9.24,8.81v7.56c0,1.89,0.09,3.74,0.32,5.03H441.42z M440.69,264.31
						c-4-0.08-7.82,0.73-7.82,3.91c0,2.07,1.43,3.01,3.22,3.01c2.25,0,3.91-1.38,4.41-2.88c0.14-0.38,0.18-0.81,0.18-1.16V264.31z"
						/>
					<path d="M458.39,247.64v5.97h5.38v3.96h-5.38v9.24c0,2.54,0.74,3.87,2.9,3.87c0.97,0,1.7-0.13,2.21-0.26l0.09,4.04
						c-0.83,0.3-2.3,0.52-4.09,0.52c-2.07,0-3.82-0.64-4.87-1.72c-1.19-1.21-1.75-3.09-1.75-5.85v-9.84h-3.22v-3.96h3.22v-4.73
						L458.39,247.64z"/>
					<path d="M474.08,247.77c0,1.59-1.24,2.84-3.22,2.84c-1.88,0-3.13-1.25-3.13-2.84c0-1.64,1.29-2.88,3.17-2.88
						C472.83,244.89,474.03,246.13,474.08,247.77z M468.05,274.55v-20.94h5.7v20.94H468.05z"/>
					<path d="M501.11,263.89c0,7.7-5.79,11.13-11.49,11.13c-6.35,0-11.22-4.08-11.22-10.79c0-6.88,4.83-11.09,11.59-11.09
						C496.65,253.14,501.11,257.52,501.11,263.89z M484.24,264.1c0,4.04,2.11,7.09,5.56,7.09c3.22,0,5.47-2.97,5.47-7.18
						c0-3.26-1.56-7.01-5.43-7.01C485.85,257.01,484.24,260.62,484.24,264.1z"/>
					<path d="M505.76,259.85c0-2.41-0.05-4.43-0.18-6.23h4.97l0.28,3.14h0.14c0.96-1.64,3.4-3.61,7.13-3.61
						c3.91,0,7.95,2.36,7.95,8.98v12.42h-5.65v-11.82c0-3.01-1.19-5.29-4.28-5.29c-2.25,0-3.82,1.51-4.41,3.1
						c-0.18,0.47-0.23,1.12-0.23,1.72v12.29h-5.7V259.85z"/>
					<path d="M544.66,274.55l-0.37-2.32h-0.14c-1.38,1.63-3.72,2.79-6.62,2.79c-4.5,0-7.03-3.05-7.03-6.23
						c0-5.29,5.01-7.96,13.29-7.91v-0.34c0-1.38-0.6-3.66-4.55-3.66c-2.21,0-4.51,0.64-6.02,1.55l-1.1-3.44
						c1.66-0.95,4.55-1.85,8.09-1.85c7.17,0,9.24,4.25,9.24,8.81v7.56c0,1.89,0.09,3.74,0.32,5.03H544.66z M543.93,264.31
						c-4-0.08-7.82,0.73-7.82,3.91c0,2.07,1.43,3.01,3.22,3.01c2.25,0,3.91-1.38,4.41-2.88c0.14-0.38,0.18-0.81,0.18-1.16V264.31z"
						/>
					<path d="M555.42,244.03h5.7v30.52h-5.7V244.03z"/>
				</g>
				<g>
					<path d="M575.23,245.57h5.61v13.33h0.14c0.74-1.12,1.52-2.15,2.25-3.14l8.09-10.19h6.99l-10.67,12.34l11.36,16.64h-6.62
						l-8.78-13.28l-2.76,3.1v10.19h-5.61V245.57z"/>
					<path d="M614.68,274.55l-0.37-2.32h-0.14c-1.38,1.63-3.72,2.79-6.62,2.79c-4.5,0-7.03-3.05-7.03-6.23
						c0-5.29,5.01-7.96,13.29-7.91v-0.34c0-1.38-0.6-3.66-4.55-3.66c-2.21,0-4.51,0.64-6.02,1.55l-1.1-3.44
						c1.66-0.95,4.55-1.85,8.09-1.85c7.17,0,9.24,4.25,9.24,8.81v7.56c0,1.89,0.09,3.74,0.32,5.03H614.68z M613.94,264.31
						c-4-0.08-7.82,0.73-7.82,3.91c0,2.07,1.43,3.01,3.22,3.01c2.25,0,3.91-1.38,4.41-2.88c0.14-0.38,0.18-0.81,0.18-1.16V264.31z"
						/>
					<path d="M646.73,263.89c0,7.7-5.79,11.13-11.49,11.13c-6.35,0-11.22-4.08-11.22-10.79c0-6.88,4.83-11.09,11.59-11.09
						C642.27,253.14,646.73,257.52,646.73,263.89z M629.85,264.1c0,4.04,2.11,7.09,5.56,7.09c3.22,0,5.47-2.97,5.47-7.18
						c0-3.26-1.56-7.01-5.43-7.01C631.46,257.01,629.85,260.62,629.85,264.1z"/>
					<path d="M651.37,244.03h5.7v12.46h0.09c0.69-0.99,1.61-1.81,2.8-2.4c1.1-0.6,2.44-0.95,3.86-0.95c3.82,0,7.82,2.36,7.82,9.07
						v12.34H666v-11.74c0-3.05-1.19-5.33-4.32-5.33c-2.21,0-3.77,1.38-4.37,2.97c-0.18,0.43-0.23,0.99-0.23,1.59v12.51h-5.7V244.03z
						"/>
					<path d="M677.4,269.69c1.29,0.73,3.72,1.5,5.75,1.5c2.48,0,3.59-0.95,3.59-2.32c0-1.42-0.92-2.15-3.68-3.05
						c-4.37-1.42-6.21-3.66-6.16-6.11c0-3.7,3.26-6.58,8.46-6.58c2.48,0,4.64,0.6,5.93,1.24l-1.1,3.74
						c-0.97-0.52-2.76-1.21-4.74-1.21c-2.02,0-3.13,0.9-3.13,2.19c0,1.33,1.06,1.98,3.91,2.92c4.05,1.38,5.93,3.31,5.98,6.4
						c0,3.78-3.17,6.53-9.1,6.53c-2.71,0-5.15-0.6-6.8-1.46L677.4,269.69z"/>
					<path d="M702.88,247.77c0,1.59-1.24,2.84-3.22,2.84c-1.88,0-3.13-1.25-3.13-2.84c0-1.64,1.29-2.88,3.17-2.88
						C701.64,244.89,702.83,246.13,702.88,247.77z M696.86,274.55v-20.94h5.7v20.94H696.86z"/>
					<path d="M728.67,268.27c0,2.49,0.09,4.56,0.18,6.27h-4.97l-0.28-3.18h-0.09c-0.97,1.5-3.17,3.65-7.17,3.65
						c-4.09,0-7.82-2.28-7.82-9.11v-12.29h5.65V265c0,3.48,1.2,5.72,4.19,5.72c2.25,0,3.72-1.5,4.32-2.84
						c0.18-0.47,0.32-1.03,0.32-1.63v-12.64h5.66V268.27z"/>
					<path d="M734.79,259.85c0-2.41-0.05-4.43-0.18-6.23h4.97l0.28,3.14h0.14c0.96-1.64,3.4-3.61,7.13-3.61
						c3.91,0,7.95,2.36,7.95,8.98v12.42h-5.65v-11.82c0-3.01-1.19-5.29-4.28-5.29c-2.25,0-3.82,1.51-4.41,3.1
						c-0.18,0.47-0.23,1.12-0.23,1.72v12.29h-5.7V259.85z"/>
					<path d="M781.56,253.61c-0.09,1.42-0.18,3.14-0.18,6.02v11.86c0,4.39-0.96,7.52-3.31,9.5c-2.35,1.93-5.56,2.54-8.64,2.54
						c-2.85,0-5.89-0.56-7.82-1.68l1.24-4c1.43,0.78,3.81,1.59,6.53,1.59c3.68,0,6.44-1.81,6.44-6.32v-1.81h-0.09
						c-1.29,1.85-3.59,3.09-6.53,3.09c-5.56,0-9.52-4.3-9.52-10.23c0-6.88,4.78-11.05,10.16-11.05c3.4,0,5.43,1.55,6.48,3.27h0.09
						l0.23-2.8H781.56z M775.72,261.99c0-0.47-0.05-0.99-0.18-1.42c-0.6-1.93-2.21-3.4-4.6-3.4c-3.17,0-5.52,2.58-5.52,6.83
						c0,3.57,1.93,6.45,5.47,6.45c2.11,0,3.95-1.29,4.6-3.18c0.14-0.56,0.23-1.29,0.23-1.89V261.99z"/>
				</g>
				<g>
					<path d="M800.45,245.57v16.9c0,5.67,2.53,8.3,6.34,8.3c4.09,0,6.53-2.62,6.53-8.3v-16.9h5.66v16.55
						c0,8.94-4.92,12.89-12.37,12.89c-7.17,0-11.82-3.74-11.82-12.85v-16.59H800.45z"/>
					<path d="M825.24,259.85c0-2.41-0.05-4.43-0.18-6.23h4.97l0.28,3.14h0.14c0.96-1.64,3.4-3.61,7.13-3.61
						c3.91,0,7.95,2.36,7.95,8.98v12.42h-5.65v-11.82c0-3.01-1.19-5.29-4.28-5.29c-2.25,0-3.82,1.51-4.41,3.1
						c-0.18,0.47-0.23,1.12-0.23,1.72v12.29h-5.7V259.85z"/>
					<path d="M857.57,247.77c0,1.59-1.24,2.84-3.22,2.84c-1.88,0-3.13-1.25-3.13-2.84c0-1.64,1.29-2.88,3.17-2.88
						C856.33,244.89,857.52,246.13,857.57,247.77z M851.55,274.55v-20.94h5.7v20.94H851.55z"/>
					<path d="M866.9,253.61l3.63,10.62c0.64,1.85,1.1,3.52,1.52,5.24h0.14c0.41-1.72,0.92-3.35,1.52-5.24l3.54-10.62h5.98
						l-8.55,20.94h-5.56l-8.32-20.94H866.9z"/>
					<path d="M890.08,265.56c0.14,3.78,3.31,5.42,6.9,5.42c2.62,0,4.51-0.34,6.21-0.95l0.83,3.66c-1.93,0.73-4.6,1.29-7.82,1.29
						c-7.26,0-11.54-4.17-11.54-10.57c0-5.8,3.77-11.26,10.94-11.26c7.26,0,9.66,5.59,9.66,10.19c0,0.99-0.09,1.76-0.18,2.23H890.08
						z M899.92,261.87c0.05-1.93-0.87-5.11-4.64-5.11c-3.49,0-4.97,2.97-5.2,5.11H899.92z"/>
					<path d="M909.81,260.36c0-2.84-0.05-4.86-0.18-6.75h4.92l0.18,4h0.18c1.1-2.97,3.72-4.47,6.12-4.47c0.55,0,0.87,0.04,1.33,0.13
						v4.99c-0.46-0.09-0.97-0.17-1.66-0.17c-2.71,0-4.55,1.64-5.06,4c-0.09,0.47-0.18,1.03-0.18,1.64v10.83h-5.65V260.36z"/>
					<path d="M925.9,269.69c1.29,0.73,3.72,1.5,5.75,1.5c2.48,0,3.59-0.95,3.59-2.32c0-1.42-0.92-2.15-3.68-3.05
						c-4.37-1.42-6.21-3.66-6.16-6.11c0-3.7,3.27-6.58,8.46-6.58c2.48,0,4.64,0.6,5.93,1.24l-1.1,3.74
						c-0.97-0.52-2.76-1.21-4.74-1.21c-2.02,0-3.12,0.9-3.12,2.19c0,1.33,1.06,1.98,3.91,2.92c4.05,1.38,5.93,3.31,5.98,6.4
						c0,3.78-3.17,6.53-9.1,6.53c-2.71,0-5.15-0.6-6.81-1.46L925.9,269.69z"/>
					<path d="M951.38,247.77c0,1.59-1.24,2.84-3.22,2.84c-1.88,0-3.13-1.25-3.13-2.84c0-1.64,1.29-2.88,3.17-2.88
						C950.14,244.89,951.33,246.13,951.38,247.77z M945.36,274.55v-20.94h5.7v20.94H945.36z"/>
					<path d="M963.61,247.64v5.97h5.38v3.96h-5.38v9.24c0,2.54,0.74,3.87,2.9,3.87c0.97,0,1.7-0.13,2.21-0.26l0.09,4.04
						c-0.83,0.3-2.3,0.52-4.09,0.52c-2.07,0-3.82-0.64-4.87-1.72c-1.19-1.21-1.75-3.09-1.75-5.85v-9.84h-3.22v-3.96h3.22v-4.73
						L963.61,247.64z"/>
					<path d="M977.13,253.61l4.05,11.22c0.46,1.29,0.92,2.88,1.24,4.09h0.14c0.37-1.21,0.78-2.75,1.19-4.13l3.49-11.18h6.07
						l-5.61,14.27c-3.08,7.82-5.15,11.31-7.82,13.45c-2.21,1.85-4.51,2.54-5.93,2.71l-1.29-4.47c0.97-0.22,2.16-0.69,3.31-1.46
						c1.06-0.64,2.3-1.89,3.08-3.31c0.23-0.38,0.37-0.69,0.37-0.95c0-0.21-0.05-0.51-0.32-1.03l-8.18-19.22H977.13z"/>
				</g>
				<g>
					<path d="M1024.36,263.89c0,7.7-5.79,11.13-11.49,11.13c-6.35,0-11.22-4.08-11.22-10.79c0-6.88,4.83-11.09,11.59-11.09
						C1019.9,253.14,1024.36,257.52,1024.36,263.89z M1007.49,264.1c0,4.04,2.11,7.09,5.56,7.09c3.22,0,5.47-2.97,5.47-7.18
						c0-3.26-1.56-7.01-5.43-7.01C1009.1,257.01,1007.49,260.62,1007.49,264.1z"/>
					<path d="M1029.66,274.55v-16.98h-3.03v-3.96h3.03v-0.9c0-2.71,0.78-5.42,2.71-7.14c1.66-1.46,3.91-2.02,5.84-2.02
						c1.52,0,2.71,0.21,3.63,0.52l-0.41,4.09c-0.6-0.21-1.38-0.39-2.39-0.39c-2.8,0-3.77,2.19-3.77,4.77v1.07h4.92v3.96h-4.87v16.98
						H1029.66z"/>
				</g>
			</g>
			<g>
				<g>
					<path d="M1059.28,268.79c1.84,0.99,4.6,1.85,7.49,1.85c3.63,0,5.65-1.59,5.65-3.95c0-2.19-1.56-3.48-5.52-4.82
						c-5.11-1.72-8.37-4.25-8.37-8.42c0-4.73,4.23-8.34,10.94-8.34c3.36,0,5.84,0.69,7.45,1.46l-1.38,4.25
						c-1.1-0.56-3.27-1.38-6.16-1.38c-3.58,0-5.15,1.81-5.15,3.48c0,2.23,1.79,3.27,5.93,4.77c5.38,1.89,8,4.43,8,8.6
						c0,4.64-3.77,8.68-11.77,8.68c-3.26,0-6.67-0.86-8.37-1.81L1059.28,268.79z"/>
					<path d="M1099.79,273.9c-1.19,0.52-3.54,1.07-6.34,1.07c-6.99,0-11.54-4.17-11.54-10.66c0-6.27,4.6-11.17,12.46-11.17
						c2.07,0,4.18,0.43,5.47,0.99l-1.01,3.95c-0.92-0.38-2.26-0.81-4.28-0.81c-4.32,0-6.9,2.97-6.85,6.79c0,4.3,2.99,6.75,6.85,6.75
						c1.97,0,3.36-0.39,4.46-0.82L1099.79,273.9z"/>
					<path d="M1110,247.77c0,1.59-1.24,2.84-3.22,2.84c-1.89,0-3.13-1.25-3.13-2.84c0-1.64,1.29-2.88,3.17-2.88
						C1108.76,244.89,1109.95,246.13,1110,247.77z M1103.98,274.55v-20.94h5.7v20.94H1103.98z"/>
					<path d="M1119.75,265.56c0.14,3.78,3.31,5.42,6.9,5.42c2.62,0,4.5-0.34,6.2-0.95l0.83,3.66c-1.93,0.73-4.6,1.29-7.82,1.29
						c-7.26,0-11.54-4.17-11.54-10.57c0-5.8,3.77-11.26,10.94-11.26c7.27,0,9.66,5.59,9.66,10.19c0,0.99-0.09,1.76-0.18,2.23
						H1119.75z M1129.59,261.87c0.04-1.93-0.88-5.11-4.64-5.11c-3.5,0-4.97,2.97-5.2,5.11H1129.59z"/>
					<path d="M1139.48,259.85c0-2.41-0.05-4.43-0.18-6.23h4.97l0.28,3.14h0.13c0.97-1.64,3.4-3.61,7.13-3.61
						c3.91,0,7.95,2.36,7.95,8.98v12.42h-5.65v-11.82c0-3.01-1.19-5.29-4.28-5.29c-2.26,0-3.82,1.51-4.41,3.1
						c-0.18,0.47-0.23,1.12-0.23,1.72v12.29h-5.7V259.85z"/>
					<path d="M1182.24,273.9c-1.19,0.52-3.54,1.07-6.35,1.07c-6.99,0-11.54-4.17-11.54-10.66c0-6.27,4.6-11.17,12.46-11.17
						c2.07,0,4.19,0.43,5.47,0.99l-1.01,3.95c-0.92-0.38-2.25-0.81-4.28-0.81c-4.32,0-6.9,2.97-6.85,6.79c0,4.3,2.99,6.75,6.85,6.75
						c1.98,0,3.36-0.39,4.46-0.82L1182.24,273.9z"/>
					<path d="M1190.01,265.56c0.14,3.78,3.31,5.42,6.9,5.42c2.62,0,4.5-0.34,6.2-0.95l0.83,3.66c-1.93,0.73-4.6,1.29-7.82,1.29
						c-7.26,0-11.54-4.17-11.54-10.57c0-5.8,3.77-11.26,10.94-11.26c7.27,0,9.66,5.59,9.66,10.19c0,0.99-0.09,1.76-0.18,2.23
						H1190.01z M1199.86,261.87c0.05-1.93-0.88-5.11-4.64-5.11c-3.5,0-4.97,2.97-5.2,5.11H1199.86z"/>
				</g>
				<g>
					<path d="M1231.63,274.55l-0.36-2.32h-0.14c-1.38,1.63-3.73,2.79-6.62,2.79c-4.51,0-7.03-3.05-7.03-6.23
						c0-5.29,5.01-7.96,13.29-7.91v-0.34c0-1.38-0.6-3.66-4.55-3.66c-2.2,0-4.51,0.64-6.02,1.55l-1.1-3.44
						c1.66-0.95,4.55-1.85,8.09-1.85c7.18,0,9.24,4.25,9.24,8.81v7.56c0,1.89,0.09,3.74,0.32,5.03H1231.63z M1230.9,264.31
						c-4-0.08-7.82,0.73-7.82,3.91c0,2.07,1.43,3.01,3.22,3.01c2.25,0,3.91-1.38,4.41-2.88c0.14-0.38,0.18-0.81,0.18-1.16V264.31z"
						/>
					<path d="M1242.4,259.85c0-2.41-0.05-4.43-0.18-6.23h4.97l0.28,3.14h0.13c0.97-1.64,3.4-3.61,7.13-3.61
						c3.91,0,7.95,2.36,7.95,8.98v12.42h-5.65v-11.82c0-3.01-1.19-5.29-4.28-5.29c-2.26,0-3.82,1.51-4.41,3.1
						c-0.18,0.47-0.23,1.12-0.23,1.72v12.29h-5.7V259.85z"/>
					<path d="M1289.35,244.03v24.63c0,2.15,0.09,4.47,0.18,5.89h-5.06l-0.23-3.31h-0.09c-1.33,2.32-4.05,3.78-7.31,3.78
						c-5.33,0-9.56-4.25-9.56-10.7c-0.05-7.01,4.64-11.17,10.02-11.17c3.08,0,5.29,1.2,6.3,2.75h0.09v-11.86H1289.35z
						 M1283.69,262.34c0-0.43-0.05-0.95-0.14-1.38c-0.51-2.07-2.3-3.74-4.87-3.74c-3.63,0-5.65,3.01-5.65,6.92
						c0,3.83,2.02,6.62,5.61,6.62c2.3,0,4.32-1.46,4.87-3.74c0.14-0.47,0.18-0.99,0.18-1.55V262.34z"/>
				</g>
				<g>
					<path d="M1310.64,250h-8.83v-4.43h23.4V250h-8.92v24.55h-5.65V250z"/>
					<path d="M1329.08,265.56c0.14,3.78,3.31,5.42,6.9,5.42c2.62,0,4.5-0.34,6.2-0.95l0.83,3.66c-1.93,0.73-4.6,1.29-7.82,1.29
						c-7.26,0-11.54-4.17-11.54-10.57c0-5.8,3.77-11.26,10.94-11.26c7.27,0,9.66,5.59,9.66,10.19c0,0.99-0.09,1.76-0.18,2.23
						H1329.08z M1338.92,261.87c0.04-1.93-0.88-5.11-4.64-5.11c-3.5,0-4.97,2.97-5.2,5.11H1338.92z"/>
					<path d="M1365.27,273.9c-1.19,0.52-3.54,1.07-6.35,1.07c-6.99,0-11.54-4.17-11.54-10.66c0-6.27,4.6-11.17,12.46-11.17
						c2.07,0,4.19,0.43,5.47,0.99l-1.01,3.95c-0.92-0.38-2.25-0.81-4.28-0.81c-4.32,0-6.9,2.97-6.85,6.79c0,4.3,2.99,6.75,6.85,6.75
						c1.98,0,3.36-0.39,4.46-0.82L1365.27,273.9z"/>
					<path d="M1369.45,243.55h5.7v12.94h0.09c0.69-0.99,1.61-1.81,2.8-2.4c1.1-0.6,2.44-0.95,3.86-0.95c3.82,0,7.82,2.36,7.82,9.07
						v12.34h-5.65v-11.74c0-3.05-1.19-5.33-4.32-5.33c-2.21,0-3.77,1.38-4.37,2.97c-0.18,0.43-0.23,0.99-0.23,1.59v12.51h-5.7
						V243.55z"/>
					<path d="M1395.76,259.85c0-2.41-0.05-4.43-0.18-6.23h4.97l0.28,3.14h0.13c0.97-1.64,3.4-3.61,7.13-3.61
						c3.91,0,7.95,2.36,7.95,8.98v12.42h-5.65v-11.82c0-3.01-1.19-5.29-4.28-5.29c-2.25,0-3.82,1.51-4.41,3.1
						c-0.18,0.47-0.23,1.12-0.23,1.72v12.29h-5.7V259.85z"/>
					<path d="M1443.35,263.89c0,7.7-5.79,11.13-11.49,11.13c-6.34,0-11.22-4.08-11.22-10.79c0-6.88,4.83-11.09,11.59-11.09
						C1438.89,253.14,1443.35,257.52,1443.35,263.89z M1426.48,264.1c0,4.04,2.12,7.09,5.56,7.09c3.22,0,5.47-2.97,5.47-7.18
						c0-3.26-1.56-7.01-5.42-7.01C1428.09,257.01,1426.48,260.62,1426.48,264.1z"/>
					<path d="M1448,243.55h5.7v30.99h-5.7V243.55z"/>
					<path d="M1481.1,263.89c0,7.7-5.79,11.13-11.49,11.13c-6.34,0-11.22-4.08-11.22-10.79c0-6.88,4.83-11.09,11.59-11.09
						C1476.64,253.14,1481.1,257.52,1481.1,263.89z M1464.23,264.1c0,4.04,2.12,7.09,5.56,7.09c3.22,0,5.47-2.97,5.47-7.18
						c0-3.26-1.56-7.01-5.42-7.01C1465.84,257.01,1464.23,260.62,1464.23,264.1z"/>
					<path d="M1506.21,253.61c-0.09,1.42-0.18,3.14-0.18,6.02v11.86c0,4.39-0.96,7.52-3.31,9.5c-2.34,1.93-5.56,2.54-8.64,2.54
						c-2.85,0-5.89-0.56-7.81-1.68l1.24-4c1.43,0.78,3.81,1.59,6.53,1.59c3.68,0,6.44-1.81,6.44-6.32v-1.81h-0.09
						c-1.29,1.85-3.59,3.09-6.53,3.09c-5.56,0-9.52-4.3-9.52-10.23c0-6.88,4.78-11.05,10.16-11.05c3.4,0,5.42,1.55,6.48,3.27h0.09
						l0.23-2.8H1506.21z M1500.37,261.99c0-0.47-0.05-0.99-0.18-1.42c-0.6-1.93-2.2-3.4-4.6-3.4c-3.17,0-5.52,2.58-5.52,6.83
						c0,3.57,1.93,6.45,5.47,6.45c2.12,0,3.96-1.29,4.6-3.18c0.14-0.56,0.23-1.29,0.23-1.89V261.99z"/>
					<path d="M1515.64,253.61l4.05,11.22c0.46,1.29,0.92,2.88,1.24,4.09h0.14c0.37-1.21,0.78-2.75,1.19-4.13l3.5-11.18h6.07
						l-5.61,14.27c-3.08,7.82-5.15,11.31-7.81,13.45c-2.21,1.85-4.51,2.54-5.93,2.71l-1.29-4.47c0.96-0.22,2.16-0.69,3.31-1.46
						c1.06-0.64,2.3-1.89,3.08-3.31c0.23-0.38,0.37-0.69,0.37-0.95c0-0.21-0.05-0.51-0.32-1.03l-8.18-19.22H1515.64z"/>
				</g>
			</g>
		</g>
	</g>
</g>
</svg>
