<?xml version="1.0" encoding="utf-8"?>
<!-- Generator: Adobe Illustrator 25.3.1, SVG Export Plug-In . SVG Version: 6.00 Build 0)  -->
<svg version="1.1" id="圖層_2" xmlns="http://www.w3.org/2000/svg" xmlns:xlink="http://www.w3.org/1999/xlink" x="0px" y="0px"
	 viewBox="0 0 1468.06 283.46" style="enable-background:new 0 0 1468.06 283.46;" xml:space="preserve">
<g>
	<g>
		<path d="M70.78,60.37c0-19.55-15.85-35.39-35.39-35.39C15.84,24.98,0,40.83,0,60.37c0,19.55,15.84,35.39,35.39,35.39
			C54.94,95.77,70.78,79.92,70.78,60.37z"/>
		<path d="M47.26,119.38c14.12,0.09,19.33,0.55,26.47,2.93c8.85,2.95,20.65,8.85,20.65,32.44c0,31.53,38.12,47.32,60.42,25.03
			c22.3-22.3,6.51-60.42-25.03-60.42c-23.59,0-29.49-11.8-32.44-20.65c-2.38-7.13-2.84-12.35-2.93-26.47
			c-0.04-6.55,5.25-11.87,11.8-11.87c39.32,0,78.64,0,117.95,0c6.51,0,11.79,5.27,11.8,11.77c0,0.01,0,0.02,0,0.02
			c0.01,3.92,0.03,7.83,0,11.8c-0.39,47.68-8.96,103.56-41.18,135.78c-32.22,32.22-88.09,40.79-135.78,41.18
			c-3.97,0.03-7.87,0.01-11.8,0c-0.01,0-0.02,0-0.03,0c-6.5-0.01-11.77-5.29-11.77-11.8c0-39.32,0-78.63,0-117.95
			C35.39,124.64,40.72,119.34,47.26,119.38z"/>
	</g>
	<g>
		<g>
			<path d="M1094.97,72.37c0.24-0.01,0.48-0.03,0.72-0.03c5.94,0,11.89,0.01,17.83-0.01c0.54,0,0.88,0.17,1.22,0.58
				c6.67,8,13.36,15.98,20.04,23.97c5.5,6.58,11,13.15,16.5,19.73c0.22,0.27,0.45,0.53,0.67,0.79c0.04-0.02,0.07-0.02,0.08-0.03
				c0.02-0.01,0.03-0.03,0.03-0.05c0.01-0.04,0.02-0.09,0.02-0.13c0.01-14.89,0.01-29.78,0.02-44.67c0-0.02,0.01-0.04,0.02-0.06
				c0.45-0.14,18.19-0.19,19.13-0.05c0,23.86,0,47.73,0,71.65c-0.17,0.02-0.34,0.04-0.51,0.04c-6.05,0-12.11,0-18.16,0.01
				c-0.44,0-0.67-0.2-0.92-0.5c-3.25-3.89-6.5-7.77-9.75-11.66c-5.49-6.56-10.98-13.12-16.46-19.67
				c-3.49-4.17-6.98-8.34-10.47-12.51c-0.19-0.23-0.39-0.46-0.66-0.77c-0.04,0.26-0.07,0.39-0.08,0.53c-0.01,0.22,0,0.44,0,0.66
				c0,14.32,0,28.64,0,42.96c0,0.3,0,0.6,0,0.95c-6.49,0-12.89,0-19.29,0C1094.97,120.19,1094.97,96.28,1094.97,72.37z"/>
			<path d="M1280.79,148.7c-0.81-0.08-1.61-0.18-2.42-0.25c-4.39-0.36-8.58-1.48-12.51-3.46c-9.85-4.97-16.23-12.8-19.09-23.46
				c-0.75-2.81-1.09-5.68-1.09-8.59c-0.01-13.22,0-26.45,0-39.67c0-0.28,0-0.56,0-0.89c6.42,0,12.76,0,19.21,0c0,0.28,0,0.56,0,0.83
				c0,12.13-0.01,24.26,0.01,36.38c0,3.15,0.36,6.25,1.41,9.25c1.08,3.1,2.8,5.74,5.52,7.65c1.8,1.27,3.82,2.04,5.98,2.42
				c2.95,0.51,5.89,0.47,8.8-0.28c4.47-1.15,7.62-3.89,9.56-8.05c1.04-2.23,1.64-4.58,1.86-7.02c0.16-1.74,0.24-3.5,0.24-5.25
				c0.02-11.69,0.01-23.38,0.01-35.07c0-0.28,0-0.56,0-0.88c6.42,0,12.77,0,19.16,0c0.02,0.18,0.05,0.35,0.05,0.52
				c0,13.11,0.03,26.23-0.01,39.34c-0.02,6.56-1.5,12.78-4.88,18.46c-5.38,9.03-13.2,14.76-23.47,17.1
				c-1.97,0.45-3.97,0.65-5.98,0.81c-0.26,0.02-0.52,0.06-0.78,0.1C1281.84,148.7,1281.32,148.7,1280.79,148.7z"/>
			<path d="M1362.25,148.7c-1-0.09-2.01-0.15-3.01-0.26c-2.02-0.22-4.06-0.38-6.06-0.7c-3.96-0.63-7.83-1.63-11.61-2.99
				c-3.22-1.16-6.33-2.57-9.24-4.39c-0.2-0.13-0.4-0.27-0.65-0.43c2.55-5.13,5.09-10.25,7.63-15.38c0.09,0.02,0.16,0.02,0.2,0.05
				c2.92,1.99,6.15,3.33,9.51,4.38c3.14,0.99,6.34,1.68,9.6,2.12c3.07,0.41,6.15,0.59,9.25,0.35c2.37-0.18,4.69-0.58,6.88-1.57
				c1.09-0.49,2.07-1.14,2.9-2.01c2.04-2.14,2.41-6.04-0.05-8.52c-1-1.01-2.18-1.75-3.45-2.37c-2.18-1.05-4.47-1.78-6.81-2.36
				c-3.6-0.91-7.22-1.75-10.83-2.65c-3.99-0.99-7.95-2.11-11.72-3.8c-2.55-1.15-4.95-2.53-7.05-4.41
				c-3.24-2.91-5.08-6.53-5.52-10.87c-0.27-2.68-0.08-5.29,0.91-7.82c1.12-2.86,3.01-5.12,5.4-6.99c2.71-2.11,5.78-3.54,9.02-4.61
				c2.94-0.97,5.95-1.59,9.02-2.03c4.38-0.62,8.79-0.72,13.19-0.49c6.64,0.35,13.13,1.5,19.35,3.93c0.61,0.24,1.2,0.51,1.84,0.78
				c-2.01,5.02-3.99,9.97-5.98,14.95c-0.14-0.06-0.24-0.1-0.33-0.15c-2.59-1.64-5.45-2.56-8.42-3.23c-4.2-0.94-8.45-1.22-12.74-1.03
				c-2.76,0.13-5.5,0.46-8.12,1.44c-0.79,0.3-1.55,0.72-2.28,1.15c-0.38,0.23-0.72,0.58-1,0.94c-0.74,0.95-0.7,2.09,0.05,3.03
				c0.5,0.63,1.16,1.07,1.86,1.44c1.28,0.69,2.63,1.2,4.03,1.58c3.16,0.87,6.34,1.69,9.51,2.51c4.41,1.14,8.79,2.34,13.01,4.08
				c3.23,1.33,6.32,2.93,9.07,5.12c3.01,2.4,5.33,5.31,6.64,8.97c0.87,2.42,1.21,4.93,1.17,7.49c-0.05,3.57-0.68,7.02-2.2,10.27
				c-1.78,3.81-4.55,6.73-8.1,8.94c-3.04,1.89-6.36,3.11-9.83,3.94c-2.54,0.61-5.11,1.02-7.71,1.21c-1.6,0.11-3.19,0.21-4.79,0.32
				c-0.15,0.01-0.3,0.05-0.45,0.07C1363.66,148.7,1362.96,148.7,1362.25,148.7z"/>
			<path d="M1468.06,88.84c-7.76,0-15.45,0-23.21,0c0,18.47,0,36.88,0,55.34c-6.41,0-12.76,0-19.19,0c0-18.44,0-36.87,0-55.35
				c-7.8,0-15.52,0-23.22,0c-0.15-0.53-0.17-15.63-0.03-16.36c21.87,0,43.74,0,65.65,0C1468.06,77.92,1468.06,83.33,1468.06,88.84z"
				/>
			<path d="M1236.76,144.34c-0.21,0-0.43,0-0.64,0c-7.22,0-14.43-0.01-21.65,0.01c-0.52,0-0.84-0.17-1.16-0.56
				c-7.45-9.12-14.92-18.22-22.38-27.33c-4.28-5.22-8.56-10.45-12.84-15.67c-0.19-0.24-0.39-0.48-0.65-0.8
				c0.21-0.17,0.43-0.33,0.62-0.5c8.94-8.41,17.89-16.83,26.83-25.25c0.49-0.47,1-0.92,1.48-1.4c0.23-0.23,0.48-0.33,0.81-0.33
				c7.81,0.01,15.62,0.01,23.42,0.01c0.13,0,0.25,0.01,0.35,0.02c0.04,0.06,0.05,0.08,0.06,0.1c0,0.02-0.01,0.04-0.02,0.06
				c-0.01,0.02-0.02,0.04-0.03,0.06c-0.06,0.06-0.12,0.13-0.19,0.19c-9.84,9.22-19.69,18.44-29.53,27.66
				c-0.01,0.01-0.02,0.04-0.07,0.13c11.87,14.47,23.77,28.97,35.67,43.47C1236.81,144.25,1236.79,144.3,1236.76,144.34z"/>
		</g>
		<g>
			<path d="M343.74,68.7v-9.55h80.53v9.55h-35.28v63.84h41.89v9.66h-93.97v-9.66h42V68.7H343.74z"/>
			<path d="M511.6,52.06v15.22h8.71V52.06h9.66v15.22h7.35c2.83-4.41,5.25-8.92,7.35-13.75l9.24,3.46
				c-2.21,3.89-4.41,7.35-6.61,10.29h15.01V76h-29.29l8.08,2.83c-1.47,2.42-2.94,4.62-4.62,6.72h21v8.71h-36.22v5.78h31.29v8.29
				h-31.29v5.77h40.95v8.82h-40.95v26.35h-10.08v-26.35h-40.95v-8.82h40.95v-5.77h-31.29v-8.29h31.29v-5.78h-36.22v-8.71h21
				c-1.37-2.52-2.94-4.83-4.62-7.04l6.82-2.52h-28.03v-8.71h14.91c-1.68-3.67-3.78-7.04-6.09-10.18l9.34-3.46
				c2.31,3.78,4.41,8.4,6.4,13.65h7.24V52.06H511.6z M501.31,130.7c-6.4,6.51-14.38,12.18-23.83,17.01l-6.19-7.98
				c9.24-4.2,17.11-9.24,23.41-14.91L501.31,130.7z M501.31,76c1.79,2.83,3.46,5.98,5.04,9.55h19.11c2.21-3.15,4.1-6.3,5.77-9.55
				H501.31z M560.84,140.57l-7.14,7.14c-5.25-5.14-12.49-10.6-21.94-16.48l6.4-6.19C547.19,130.28,554.75,135.43,560.84,140.57z"/>
			<path d="M617.83,64.5c-1.47-3.57-3.25-7.04-5.25-10.39l9.45-2.62c2.31,4.72,4.09,9.03,5.46,13.02h13.86v9.03h-39.79V64.5H617.83z
				 M637.99,140.73c9.76-3.25,18.06-7.46,24.88-12.49c-6.19-6.93-10.39-14.49-12.6-22.68h-5.98V95.9h46.09v9.13
				c-2.62,9.13-7.03,17.11-13.23,23.83c5.88,4.41,13.02,8.4,21.52,11.86l-5.35,8.61c-9.13-4.2-16.8-8.82-23.1-14.07
				c-7.35,5.77-16.48,10.39-27.19,13.96l-5.04-7.77v0.94h-24.04v4.72h-9.34v-36.64h33.39V140.73z M637.15,80.15v8.61h-31.71v-8.61
				H637.15z M637.15,94.64v8.71h-31.6v-8.71H637.15z M628.85,133.59V119.1h-14.91v14.49H628.85z M684.82,55.26v22.05
				c0,2.31,1.37,3.57,4.2,3.57h6.61v9.13h-9.34c-7.67,0-11.44-3.57-11.44-10.5V64.61h-13.86v3.46c0,10.71-4.93,18.9-14.7,24.78
				l-6.61-7.25c7.56-3.88,11.44-9.34,11.44-16.48V55.26H684.82z M669.7,122.15c4.72-5.04,8.4-10.5,10.92-16.59h-20.89
				C661.72,111.65,665.08,117.11,669.7,122.15z"/>
			<path d="M754.61,63.35c-1.47-3.57-3.25-7.03-5.14-10.29l9.55-2.62c2.21,4.72,3.99,9.03,5.25,12.91h13.96v9.24h-40.32v-9.24
				H754.61z M751.04,147.56h-9.55v-38.43h33.18v36.96h-9.55v-4.41h-14.07V147.56z M774.03,78.99v8.71h-32.02v-8.71H774.03z
				 M774.03,93.59v8.82h-32.02v-8.82H774.03z M765.11,118.26h-14.07v14.28h14.07V118.26z M811.62,50.96v33.6h23.2v9.66h-23.2v53.34
				h-9.76V94.22h-22.05v-9.66h22.05v-33.6H811.62z"/>
			<path d="M906.3,124.88c-7.04,8.71-15.75,16.38-26.14,22.89l-6.09-7.98c10.08-5.88,18.58-12.81,25.51-20.79L906.3,124.88z
				 M905.04,148.82l-2.1-9.34c3.67,0.42,7.25,0.63,10.71,0.63c2.1,0,3.15-1.26,3.15-3.67V114.9c-10.39,0.63-21.73,1.16-33.91,1.68
				l-2.83-8.71c3.15-0.21,5.98-0.84,8.61-1.79c9.03-2.83,19-7.24,29.92-13.23c-10.81,0.74-21.52,1.37-32.23,1.89l-1.47-8.4
				c13.54-3.46,26.88-10.08,40.11-19.84l-1.26,0.31c-8.92,2.31-21.42,4.83-37.59,7.56l-5.04-8.29c12.39-1.37,24.04-3.36,34.86-5.88
				c9.03-2.1,17.53-4.72,25.41-7.67l8.61,5.35c-8.08,3.46-16.27,6.3-24.57,8.5l7.24,5.14c-7.88,5.99-16.17,11.03-24.78,15.12
				c8.19-0.63,16.38-1.37,24.46-2c4.3-2.73,8.71-5.67,13.33-8.82l9.55,4.62c-18.37,11.97-34.44,21-48.19,26.98
				c14.91-0.84,28.14-1.89,39.48-3.04c-2.31-3.15-4.62-6.2-7.03-9.13l7.24-4.51c8.29,9.87,14.7,18.48,19.11,25.83l-7.88,5.35
				c-1.78-3.15-3.78-6.4-5.98-9.76c-7.56,0.74-15.96,1.47-25.2,2.1v24.57c0,6.61-3.25,9.97-9.76,9.97H905.04z M965.73,141.05
				l-7.04,6.93c-5.88-7.35-14.07-15.22-24.57-23.73l6.51-6.19C950.5,125.72,958.9,133.38,965.73,141.05z"/>
		</g>
		<rect x="1013.01" y="66.24" width="16" height="86.29"/>
	</g>
	<g>
		<g>
			<path d="M353.39,200.85c9.6,0,16.65,2.03,21.45,6.52c3.82,3.53,6.75,8.78,6.75,16.35c0,8.62-3.6,15.22-9.37,19.57
				c-5.55,4.2-12.67,6.3-21.22,6.3h-20.62v-2.77c5.7-0.45,6.37-1.12,6.37-7.35v-28.5c0-6.3-0.82-6.9-6.37-7.35v-2.78H353.39z
				 M347.17,238.95c0,5.32,1.35,7.12,6.82,7.12c10.12,0,15.97-7.05,15.97-21.22c0-7.12-1.95-13.35-5.4-16.57
				c-3.15-3.15-7.05-4.2-12.07-4.2c-2.77,0-4.05,0.6-4.5,1.05c-0.67,0.68-0.82,1.95-0.82,4.12V238.95z"/>
			<path d="M417.29,242.24c-4.57,6.75-10.57,8.25-13.72,8.25c-10.05,0-15.75-7.42-15.75-16.35c0-5.25,2.48-10.42,5.62-13.5
				c3.38-3.37,7.57-5.25,11.7-5.25c7.35,0,12.45,6.07,12.37,12.22c0,1.27-0.08,2.55-0.98,2.77c-1.42,0.38-12,0.9-19.27,1.2
				c0.3,7.95,4.73,12,10.12,12c2.93,0,5.85-1.05,8.55-3.38L417.29,242.24z M403.64,218.47c-3,0-5.55,3.53-6,9.45
				c3.08-0.08,5.92-0.15,9.07-0.23c1.05-0.07,1.5-0.22,1.5-1.5C408.29,222.45,406.57,218.47,403.64,218.47z"/>
			<path d="M422.02,218.02c3.97-0.6,9-2.03,13.8-3.38c0,1.57,0,3.82,0,5.4c0.15-0.08,5.02-3,5.25-3.08
				c1.88-1.12,3.52-1.57,4.88-1.57c8.25,0,12.97,7.57,12.97,14.77c0,10.95-8.7,18.22-18.37,20.32c-1.88,0-3.6-0.23-4.72-0.68v9
				c0,4.2,0.38,4.65,5.55,5.33v2.47h-20.1v-2.47c4.57-0.45,4.87-1.12,4.87-5.25v-33.45c0-4.05-0.45-4.5-4.12-4.95V218.02z
				 M435.82,244.12c1.42,1.42,4.2,2.77,6.15,2.77c3.97,0,6.9-4.87,6.9-12.97c0-9.22-4.57-12.75-8.32-12.75
				c-1.88,0-3.45,0.75-4.72,1.65V244.12z"/>
			<path d="M488.99,250.49c-2.02,0-3.67-0.68-4.65-1.58c-1.05-0.9-1.57-1.95-1.95-2.78c-2.85,1.88-6.52,4.35-7.95,4.35
				c-6.45,0-10.2-5.03-10.2-9.67c0-3.97,1.8-5.78,5.77-7.35c4.42-1.65,10.35-3.45,12.07-4.95v-3.3c0-3.9-1.42-6.08-4.65-6.08
				c-1.27,0-2.33,0.6-3,1.5c-0.9,1.2-1.2,2.7-1.8,4.95c-0.52,2.03-1.73,2.55-3.23,2.55c-1.95,0-4.42-1.8-4.42-3.9
				c0-1.35,0.9-2.33,2.62-3.53c3.38-2.25,7.8-4.42,12-5.32c3,0,5.55,0.67,7.72,2.17c3.23,2.25,4.12,5.4,4.12,9.22v12.97
				c0,3.6,1.2,4.5,2.4,4.5c0.75,0,1.5-0.22,2.32-0.6l0.83,2.55L488.99,250.49z M482.09,231.6c-1.35,0.75-2.7,1.5-4.2,2.32
				c-2.32,1.2-3.67,2.55-3.67,5.1c0,4.2,2.92,5.7,4.57,5.7c1.05,0,2.1-0.08,3.3-1.2C482.09,239.99,482.09,235.12,482.09,231.6z"/>
			<path d="M519.37,249.59h-19.8v-2.55c3.97-0.45,4.35-0.83,4.35-5.33V225.3c0-3.75-0.3-4.12-3.82-4.88v-2.33
				c4.65-0.52,8.85-1.42,13.5-2.85c0,2.47,0,5.7,0,8.1c3.38-5.17,6.07-7.95,9.15-7.95c2.77,0,4.88,1.88,4.88,4.5
				c0,3.67-2.62,5.78-3.82,6.38c-1.05,0.45-1.8,0.08-2.33-0.38c-1.27-1.05-2.25-2.25-3.52-2.25c-1.12,0-3,0.98-4.35,3.83v14.25
				c0,4.5,0.52,4.73,5.77,5.33V249.59z"/>
			<path d="M548.24,249.67c-1.27,0.6-2.48,0.83-3,0.83c-5.77,0-9.22-2.7-9.22-9.53v-20.92h-4.8l-0.45-0.9l2.18-2.85h3.07v-6.22
				c2.55-1.8,6.22-4.2,8.85-6l0.98,0.6c-0.08,2.02-0.23,6-0.15,11.62h7.5c0.67,0.75,0.38,3.08-0.6,3.75h-6.9v18.37
				c0,5.85,2.4,6.53,3.83,6.53c1.27,0,2.25-0.23,3.6-0.75l0.75,2.7L548.24,249.67z"/>
			<path d="M597.89,249.59v-2.55c3-0.45,3.52-0.75,3.52-5.33v-12.97c0-6.22-2.92-7.35-5.25-7.35c-1.5,0-3.22,0.45-5.55,2.33
				c0.08,0.9,0.15,2.03,0.15,3.15v15.15c0,4.2,0.22,4.57,3.67,5.02v2.55h-16.87v-2.55c3.3-0.45,3.6-0.67,3.6-5.02v-13.65
				c0-5.32-2.1-7.05-4.88-7.05c-1.88,0-3.67,0.67-5.77,2.25v18.45c0,4.2,0.45,4.57,3.23,5.02v2.55h-17.17v-2.55
				c4.12-0.53,4.35-0.83,4.35-5.33v-15.9c0-4.2-0.07-4.87-3.6-5.4v-2.4c4.2-0.45,8.47-1.5,13.2-2.85c0,1.8,0,3.9,0,5.62
				c1.65-1.12,3-2.1,4.57-3.08c2.33-1.42,4.12-2.32,6.38-2.32c4.2,0,6.97,2.25,8.4,5.7c1.8-1.35,3.3-2.4,5.17-3.67
				c1.65-1.05,3.75-2.02,6-2.02c6.52,0,9.97,4.42,9.97,12.07v14.55c0,4.12,0.38,4.42,4.05,5.02v2.55H597.89z"/>
			<path d="M649.04,242.24c-4.57,6.75-10.57,8.25-13.72,8.25c-10.05,0-15.75-7.42-15.75-16.35c0-5.25,2.48-10.42,5.62-13.5
				c3.38-3.37,7.57-5.25,11.7-5.25c7.35,0,12.45,6.07,12.37,12.22c0,1.27-0.08,2.55-0.98,2.77c-1.42,0.38-12,0.9-19.27,1.2
				c0.3,7.95,4.73,12,10.12,12c2.93,0,5.85-1.05,8.55-3.38L649.04,242.24z M635.39,218.47c-3,0-5.55,3.53-6,9.45
				c3.08-0.08,5.92-0.15,9.07-0.23c1.05-0.07,1.5-0.22,1.5-1.5C640.04,222.45,638.31,218.47,635.39,218.47z"/>
			<path d="M675.29,249.59v-2.55c3.15-0.45,3.38-0.75,3.38-5.92V228.3c0-5.33-2.62-6.97-5.25-6.97c-1.95,0-3.6,0.75-5.62,2.25v18.15
				c0,4.58,0.3,4.88,3.38,5.33v2.55h-17.4v-2.55c3.9-0.67,4.35-0.75,4.35-5.62v-15.6c0-4.5-0.6-4.72-3.9-5.4v-2.4
				c4.35-0.53,9.52-1.5,13.72-2.85c-0.08,1.05-0.15,3.67-0.15,5.4c1.5-1.05,3.07-2.18,4.8-3.23c2.25-1.35,3.67-1.95,5.85-1.95
				c6.07,0,9.9,4.42,9.9,12.07v14.17c0,4.65,0.45,4.87,4.05,5.4v2.55H675.29z"/>
			<path d="M711.66,249.67c-1.27,0.6-2.48,0.83-3,0.83c-5.77,0-9.22-2.7-9.22-9.53v-20.92h-4.8l-0.45-0.9l2.18-2.85h3.07v-6.22
				c2.55-1.8,6.22-4.2,8.85-6l0.98,0.6c-0.08,2.02-0.23,6-0.15,11.62h7.5c0.67,0.75,0.38,3.08-0.6,3.75h-6.9v18.37
				c0,5.85,2.4,6.53,3.83,6.53c1.27,0,2.25-0.23,3.6-0.75l0.75,2.7L711.66,249.67z"/>
		</g>
		<g>
			<path d="M788.46,215.4c10.57,0,17.25,7.95,17.25,16.95c0,12.07-8.7,18.15-17.55,18.15c-11.33,0-17.77-8.55-17.77-17.33
				C770.39,221.7,779.84,215.4,788.46,215.4z M787.56,218.4c-3.22,0-6.38,3.38-6.38,12.6c0,9.3,3.08,16.42,7.8,16.42
				c2.85,0,5.92-1.95,5.92-12.9C794.91,224.1,792.21,218.4,787.56,218.4z"/>
			<path d="M814.64,216.3v-1.58c0-5.1,2.85-10.42,7.12-13.8c2.7-2.25,5.62-3.45,9.22-3.9c2.85,0,5.17,0.83,6.52,2.1
				c1.05,1.05,1.05,2.25,0.67,3.38c-0.45,1.35-1.5,2.62-2.7,3.3c-1.28,0.75-2.03,0.52-2.78-0.15c-1.8-1.88-4.05-4.27-6.15-4.27
				c-2.03,0-2.33,2.02-2.25,11.7v3.22h6.9c0.3,0.75,0,3.15-1.05,3.75h-5.85v21.37c0,4.65,0.53,5.03,5.32,5.62v2.55h-19.42v-2.55
				c4.2-0.6,4.42-0.97,4.42-5.62v-21.37h-4.95l-0.38-0.97l1.95-2.78H814.64z"/>
		</g>
		<g>
			<path d="M883.86,249.59v-2.77c5.7-0.53,6.38-0.98,6.38-7.28v-28.57c0-6.3-0.75-6.9-6.38-7.35v-2.78h23.17v2.78
				c-5.62,0.52-6.38,1.05-6.38,7.35v28.57c0,6.22,0.68,6.67,6.38,7.28v2.77H883.86z"/>
			<path d="M931.56,249.59v-2.55c3.15-0.45,3.37-0.75,3.37-5.92V228.3c0-5.33-2.62-6.97-5.25-6.97c-1.95,0-3.6,0.75-5.62,2.25v18.15
				c0,4.58,0.3,4.88,3.38,5.33v2.55h-17.4v-2.55c3.9-0.67,4.35-0.75,4.35-5.62v-15.6c0-4.5-0.6-4.72-3.9-5.4v-2.4
				c4.35-0.53,9.52-1.5,13.72-2.85c-0.08,1.05-0.15,3.67-0.15,5.4c1.5-1.05,3.08-2.18,4.8-3.23c2.25-1.35,3.67-1.95,5.85-1.95
				c6.08,0,9.9,4.42,9.9,12.07v14.17c0,4.65,0.45,4.87,4.05,5.4v2.55H931.56z"/>
			<path d="M991.71,247.64c-1.8,0.3-8.7,1.2-14.7,2.92c0-1.42,0-2.85,0-4.35c-1.35,0.9-3.22,2.03-4.57,2.92
				c-1.8,1.12-2.92,1.35-3.75,1.35c-6.38,0-15.45-5.48-15.45-16.65c0-10.28,9.07-18.45,20.77-18.45c0.53,0,1.8,0,3,0.22V207
				c0-3.97-0.38-4.35-5.02-4.95v-2.48c4.95-0.52,11.02-1.5,14.77-2.55c0,2.92,0,5.55,0,8.78v34.35c0,4.05,0.45,4.42,3.3,4.8
				l1.65,0.22V247.64z M977.01,222.52c-0.82-2.1-2.77-3.75-5.62-3.75c-2.33,0-7.35,1.58-7.35,12.45c0,9.82,5.48,13.42,8.85,13.5
				c1.35,0,2.48-0.22,4.12-1.27V222.52z"/>
			<path d="M1032.58,247.79c-4.5,0.6-9.3,1.58-14.25,2.7c0-1.65,0-3.45,0-5.1c-3.08,2.55-6.22,5.1-10.35,5.1
				c-6.3,0-9.82-4.05-9.82-10.72v-15.52c0-3.45-0.45-3.83-2.48-4.35l-1.57-0.45v-2.4c3.82-0.15,9.75-0.67,13.95-1.27
				c-0.15,3.15-0.22,7.05-0.22,11.32v10.95c0,4.88,2.47,6.53,5.1,6.53c2.1,0,3.75-0.45,5.4-2.17v-18.08c0-3.45-0.38-4.05-2.47-4.42
				l-2.25-0.45v-2.4c4.35-0.15,10.72-0.67,14.47-1.27v24.45c0,3.9,0.45,4.73,2.85,4.95l1.65,0.15V247.79z"/>
			<path d="M1057.18,226.05c-1.95-5.25-4.5-7.65-8.02-7.65c-2.1,0-3.98,1.5-3.98,3.98c0,2.62,1.88,4.05,5.78,5.77
				c6.07,2.7,10.2,5.25,10.2,11.17c0,7.5-7.12,11.17-13.65,11.17c-3.9,0-7.95-1.5-9.52-2.25c-0.3-1.73-0.98-6.9-1.2-9.53l2.47-0.45
				c1.58,4.72,4.65,9.15,9.53,9.15c2.85,0,4.27-1.72,4.27-3.9c0-2.32-1.12-4.05-5.77-6.3c-4.95-2.4-9.75-5.03-9.75-11.25
				c0-5.92,4.88-10.57,12.82-10.57c3.6,0,6.38,0.75,8.1,1.12c0.23,2.02,0.9,6.82,1.2,8.85L1057.18,226.05z"/>
			<path d="M1080.73,249.67c-1.28,0.6-2.47,0.83-3,0.83c-5.77,0-9.22-2.7-9.22-9.53v-20.92h-4.8l-0.45-0.9l2.17-2.85h3.08v-6.22
				c2.55-1.8,6.22-4.2,8.85-6l0.97,0.6c-0.07,2.02-0.22,6-0.15,11.62h7.5c0.68,0.75,0.38,3.08-0.6,3.75h-6.9v18.37
				c0,5.85,2.4,6.53,3.82,6.53c1.28,0,2.25-0.23,3.6-0.75l0.75,2.7L1080.73,249.67z"/>
			<path d="M1108.86,249.59h-19.8v-2.55c3.97-0.45,4.35-0.83,4.35-5.33V225.3c0-3.75-0.3-4.12-3.83-4.88v-2.33
				c4.65-0.52,8.85-1.42,13.5-2.85c0,2.47,0,5.7,0,8.1c3.38-5.17,6.07-7.95,9.15-7.95c2.78,0,4.88,1.88,4.88,4.5
				c0,3.67-2.62,5.78-3.83,6.38c-1.05,0.45-1.8,0.08-2.32-0.38c-1.28-1.05-2.25-2.25-3.53-2.25c-1.12,0-3,0.98-4.35,3.83v14.25
				c0,4.5,0.53,4.73,5.77,5.33V249.59z"/>
			<path d="M1120.78,249.59v-2.55c4.05-0.53,4.5-0.83,4.5-6.15v-14.62c0-5.02-0.38-5.32-3.9-5.77v-2.47
				c4.72-0.53,9.45-1.5,13.57-2.7c0,3.15,0,6.22,0,9.3v16.27c0,5.1,0.3,5.62,4.65,6.15v2.55H1120.78z M1129.56,210.75
				c-2.85,0-5.4-2.4-5.4-5.32c0-3.08,2.55-5.33,5.47-5.33c3,0,5.4,2.25,5.4,5.33C1135.03,208.35,1132.63,210.75,1129.56,210.75z"/>
			<path d="M1168.48,250.49c-2.02,0-3.67-0.68-4.65-1.58c-1.05-0.9-1.58-1.95-1.95-2.78c-2.85,1.88-6.52,4.35-7.95,4.35
				c-6.45,0-10.2-5.03-10.2-9.67c0-3.97,1.8-5.78,5.77-7.35c4.42-1.65,10.35-3.45,12.08-4.95v-3.3c0-3.9-1.42-6.08-4.65-6.08
				c-1.27,0-2.32,0.6-3,1.5c-0.9,1.2-1.2,2.7-1.8,4.95c-0.52,2.03-1.72,2.55-3.22,2.55c-1.95,0-4.42-1.8-4.42-3.9
				c0-1.35,0.9-2.33,2.62-3.53c3.38-2.25,7.8-4.42,12-5.32c3,0,5.55,0.67,7.73,2.17c3.22,2.25,4.12,5.4,4.12,9.22v12.97
				c0,3.6,1.2,4.5,2.4,4.5c0.75,0,1.5-0.22,2.33-0.6l0.82,2.55L1168.48,250.49z M1161.58,231.6c-1.35,0.75-2.7,1.5-4.2,2.32
				c-2.33,1.2-3.67,2.55-3.67,5.1c0,4.2,2.92,5.7,4.58,5.7c1.05,0,2.1-0.08,3.3-1.2C1161.58,239.99,1161.58,235.12,1161.58,231.6z"
				/>
			<path d="M1178.23,249.59v-2.55c4.28-0.67,4.42-1.05,4.42-5.77v-34.12c0-3.9-0.45-4.35-4.35-5.17v-2.4
				c5.17-0.52,10.42-1.42,14.02-2.55c0,3.38,0,6.75,0,10.2v34.05c0,4.95,0.22,5.25,4.5,5.77v2.55H1178.23z"/>
		</g>
		<g>
			<path d="M1268.92,200.85c9.6,0,16.65,2.03,21.45,6.52c3.83,3.53,6.75,8.78,6.75,16.35c0,8.62-3.6,15.22-9.37,19.57
				c-5.55,4.2-12.67,6.3-21.22,6.3h-20.62v-2.77c5.7-0.45,6.38-1.12,6.38-7.35v-28.5c0-6.3-0.83-6.9-6.38-7.35v-2.78H1268.92z
				 M1262.7,238.95c0,5.32,1.35,7.12,6.83,7.12c10.12,0,15.97-7.05,15.97-21.22c0-7.12-1.95-13.35-5.4-16.57
				c-3.15-3.15-7.05-4.2-12.07-4.2c-2.78,0-4.05,0.6-4.5,1.05c-0.67,0.68-0.83,1.95-0.83,4.12V238.95z"/>
			<path d="M1332.82,242.24c-4.58,6.75-10.57,8.25-13.72,8.25c-10.05,0-15.75-7.42-15.75-16.35c0-5.25,2.47-10.42,5.62-13.5
				c3.38-3.37,7.58-5.25,11.7-5.25c7.35,0,12.45,6.07,12.37,12.22c0,1.27-0.08,2.55-0.97,2.77c-1.42,0.38-12,0.9-19.27,1.2
				c0.3,7.95,4.72,12,10.12,12c2.92,0,5.85-1.05,8.55-3.38L1332.82,242.24z M1319.17,218.47c-3,0-5.55,3.53-6,9.45
				c3.08-0.08,5.92-0.15,9.08-0.23c1.05-0.07,1.5-0.22,1.5-1.5C1323.82,222.45,1322.1,218.47,1319.17,218.47z"/>
			<path d="M1358.62,226.05c-1.95-5.25-4.5-7.65-8.02-7.65c-2.1,0-3.98,1.5-3.98,3.98c0,2.62,1.88,4.05,5.78,5.77
				c6.07,2.7,10.2,5.25,10.2,11.17c0,7.5-7.12,11.17-13.65,11.17c-3.9,0-7.95-1.5-9.52-2.25c-0.3-1.73-0.98-6.9-1.2-9.53l2.47-0.45
				c1.58,4.72,4.65,9.15,9.53,9.15c2.85,0,4.27-1.72,4.27-3.9c0-2.32-1.12-4.05-5.77-6.3c-4.95-2.4-9.75-5.03-9.75-11.25
				c0-5.92,4.88-10.57,12.82-10.57c3.6,0,6.38,0.75,8.1,1.12c0.23,2.02,0.9,6.82,1.2,8.85L1358.62,226.05z"/>
			<path d="M1366.87,249.59v-2.55c4.05-0.53,4.5-0.83,4.5-6.15v-14.62c0-5.02-0.38-5.32-3.9-5.77v-2.47
				c4.72-0.53,9.45-1.5,13.57-2.7c0,3.15,0,6.22,0,9.3v16.27c0,5.1,0.3,5.62,4.65,6.15v2.55H1366.87z M1375.65,210.75
				c-2.85,0-5.4-2.4-5.4-5.32c0-3.08,2.55-5.33,5.47-5.33c3,0,5.4,2.25,5.4,5.33C1381.12,208.35,1378.72,210.75,1375.65,210.75z"/>
			<path d="M1400.4,237.9c-0.75,0.82-1.35,1.8-1.35,2.55c0,1.2,1.43,2.77,4.28,2.77c2.4,0,6,0,8.47,0c4.58,0,11.25,1.88,11.25,9.22
				c0,8.47-10.35,15.22-20.32,15.22c-9.83,0-14.25-4.8-14.25-8.92c0-1.8,0.67-3,2.25-4.13c2.03-1.42,3.97-2.7,5.62-3.75
				c-3-1.12-4.58-2.62-5.62-4.2c-0.9-1.2-1.35-3.08-1.2-4.12c3.53-1.5,6.67-3.75,8.1-5.47L1400.4,237.9z M1404,238.65
				c-8.55,0-14.1-4.58-14.1-11.33c0-8.1,7.8-11.92,14.55-11.92c3.15,0,5.7,0.6,8.47,1.95c3.15,0,8.47-0.52,10.35-1.05l0.38,0.6
				c-0.45,1.35-1.42,3.82-2.78,4.65c-1.27,0-3.38-0.3-4.42-0.38c1.12,1.35,1.8,3.3,1.8,6.15
				C1418.25,234.82,1411.35,238.65,1404,238.65z M1404.9,251.09c-3.83,0-5.7,0.45-6.83,1.42c-1.27,1.05-2.1,2.55-2.1,4.13
				c0,3.97,3.75,7.05,10.2,7.05c5.78,0,9.38-2.7,9.38-6.75c0-2.77-1.8-4.58-4.12-5.17C1409.4,251.24,1407.67,251.09,1404.9,251.09z
				 M1404.07,218.25c-2.33,0-4.65,2.77-4.65,8.25c0,5.1,1.73,9.3,5.25,9.3c2.92,0,4.58-3.07,4.58-8.47
				C1409.25,222.6,1407.67,218.25,1404.07,218.25z"/>
			<path d="M1447.57,249.59v-2.55c3.15-0.45,3.37-0.75,3.37-5.92V228.3c0-5.33-2.62-6.97-5.25-6.97c-1.95,0-3.6,0.75-5.62,2.25
				v18.15c0,4.58,0.3,4.88,3.38,5.33v2.55h-17.4v-2.55c3.9-0.67,4.35-0.75,4.35-5.62v-15.6c0-4.5-0.6-4.72-3.9-5.4v-2.4
				c4.35-0.53,9.52-1.5,13.72-2.85c-0.08,1.05-0.15,3.67-0.15,5.4c1.5-1.05,3.08-2.18,4.8-3.23c2.25-1.35,3.67-1.95,5.85-1.95
				c6.08,0,9.9,4.42,9.9,12.07v14.17c0,4.65,0.45,4.87,4.05,5.4v2.55H1447.57z"/>
		</g>
	</g>
</g>
</svg>
