<?xml version="1.0" encoding="utf-8"?>
<!-- Generator: Adobe Illustrator 25.3.1, SVG Export Plug-In . SVG Version: 6.00 Build 0)  -->
<svg version="1.1" id="圖層_2" xmlns="http://www.w3.org/2000/svg" xmlns:xlink="http://www.w3.org/1999/xlink" x="0px" y="0px"
	 viewBox="0 0 1291.34 283.46" style="enable-background:new 0 0 1291.34 283.46;" xml:space="preserve">
<g>
	<g>
		<path d="M45.74,252.3c-2.43,8.05-7.79,14.72-19.95,14.72c-14.17,0-21.87-10.9-21.87-24.33s8.54-24.53,22.18-24.53
			c12.32,0,18.11,7.29,19.78,14.99h-6.19c-1.84-4.91-5.27-9.45-13.67-9.45c-9.79,0-15.72,7.95-15.72,18.76
			c0,10.63,5.87,19.06,15.78,19.06c8.03,0,11.25-3.79,13.57-9.2H45.74z"/>
		<path d="M96.83,242.44c0,13.25-8.16,24.58-22.47,24.58c-13.74,0-22.34-10.85-22.34-24.6c0-13.01,8.81-24.27,22.51-24.27
			C88.16,218.14,96.83,229.43,96.83,242.44z M58.41,242.23c0,10.08,5.6,19.22,16.16,19.22c10.43,0,15.87-8.71,15.87-18.89
			c0-9.71-5.57-18.87-16.25-18.87C64.24,223.7,58.41,232.33,58.41,242.23z"/>
		<path d="M106.4,219.14h5.99v41.24h25.73l-0.91,5.64H106.4V219.14z"/>
		<path d="M144.78,219.14h5.99v41.24h25.73l-0.91,5.64h-30.81V219.14z"/>
		<path d="M214.77,244.19h-25.59v16.23h28.23l-0.81,5.6h-33.45v-46.89h32.96v5.6h-26.93v13.86h25.59V244.19z"/>
		<path d="M265.72,266.02h-4.62c-0.2-1.17-0.46-4.86-0.48-6.93c-2.85,5.05-7.19,7.92-15.54,7.92c-13.47,0-21.71-9.73-21.71-24.29
			c0-13.8,8.54-24.57,22.75-24.57c12.77,0,18.23,7.15,19.82,14.06h-6.21c-1.64-4.38-5.35-8.61-13.65-8.61
			c-10.68,0-16.32,8.26-16.32,18.75c0,11.04,5.71,19.19,16.18,19.19c8.91,0,13.95-4.97,13.95-14.2v-1.4h-13.83v-5.56h19.67V266.02z"
			/>
		<path d="M308.23,244.19h-25.59v16.23h28.23l-0.81,5.6h-33.45v-46.89h32.96v5.6h-26.93v13.86h25.59V244.19z"/>
		<path d="M379.1,242.44c0,13.25-8.16,24.58-22.47,24.58c-13.74,0-22.34-10.85-22.34-24.6c0-13.01,8.81-24.27,22.51-24.27
			C370.44,218.14,379.1,229.43,379.1,242.44z M340.69,242.23c0,10.08,5.6,19.22,16.16,19.22c10.43,0,15.87-8.71,15.87-18.89
			c0-9.71-5.57-18.87-16.25-18.87C346.52,223.7,340.69,232.33,340.69,242.23z"/>
		<path d="M388.72,219.14h32.46v5.58h-26.43v15.26h24.64v5.64h-24.64v20.41h-6.03V219.14z"/>
		<path d="M453.44,219.14v46.89h-6.03v-46.89H453.44z"/>
		<path d="M465.91,266.02v-46.89h7.22c9.6,14.69,23.31,33.94,25.73,38.77h0.12c-0.38-6.1-0.32-13.5-0.32-21.12v-17.65h5.64v46.89
			h-6.82c-6.34-9.36-23.07-34.64-26.12-40.1h-0.12c0.32,6.03,0.32,12.68,0.32,20.97v19.13H465.91z"/>
		<path d="M516.78,266.02v-46.89H524c9.6,14.69,23.31,33.94,25.73,38.77h0.12c-0.38-6.1-0.32-13.5-0.32-21.12v-17.65h5.64v46.89
			h-6.82c-6.34-9.36-23.07-34.64-26.12-40.1h-0.12c0.32,6.03,0.32,12.68,0.32,20.97v19.13H516.78z"/>
		<path d="M609.85,242.44c0,13.25-8.16,24.58-22.47,24.58c-13.74,0-22.34-10.85-22.34-24.6c0-13.01,8.81-24.27,22.51-24.27
			C601.19,218.14,609.85,229.43,609.85,242.44z M571.43,242.23c0,10.08,5.6,19.22,16.16,19.22c10.43,0,15.87-8.71,15.87-18.89
			c0-9.71-5.57-18.87-16.25-18.87C577.27,223.7,571.43,232.33,571.43,242.23z"/>
		<path d="M632.19,266.02l-18.65-46.89h6.62l9.7,25.01c3.58,9.26,5.01,13.5,5.81,16.13h0.12c0.66-2.28,2.59-7.28,5.45-15.05
			l10.26-26.09h6.44L639,266.02H632.19z"/>
		<path d="M666.68,251.82l-5.51,14.21h-6.29l18.35-46.89h7.31l19.08,46.89h-6.56l-5.75-14.21H666.68z M685.36,246.17
			c-5.21-12.94-7.67-19.08-8.65-22.26h-0.06c-0.88,3.07-3.8,11.1-8.09,22.26H685.36z"/>
		<path d="M711.28,224.76h-16.27v-5.62h38.58v5.62h-16.25v41.27h-6.07V224.76z"/>
		<path d="M746.77,219.14v46.89h-6.03v-46.89H746.77z"/>
		<path d="M801.44,242.44c0,13.25-8.16,24.58-22.46,24.58c-13.74,0-22.34-10.85-22.34-24.6c0-13.01,8.81-24.27,22.51-24.27
			C792.78,218.14,801.44,229.43,801.44,242.44z M763.02,242.23c0,10.08,5.6,19.22,16.16,19.22c10.43,0,15.87-8.71,15.87-18.89
			c0-9.71-5.57-18.87-16.25-18.87C768.86,223.7,763.02,232.33,763.02,242.23z"/>
		<path d="M811.01,266.02v-46.89h7.21c9.6,14.69,23.31,33.94,25.73,38.77h0.12c-0.38-6.1-0.32-13.5-0.32-21.12v-17.65h5.64v46.89
			h-6.82c-6.34-9.36-23.07-34.64-26.12-40.1h-0.12c0.32,6.03,0.32,12.68,0.32,20.97v19.13H811.01z"/>
		<path d="M885.72,251.82l-5.51,14.21h-6.29l18.35-46.89h7.31l19.08,46.89h-6.56l-5.75-14.21H885.72z M904.4,246.17
			c-5.21-12.94-7.67-19.08-8.65-22.26h-0.06c-0.88,3.07-3.8,11.1-8.09,22.26H904.4z"/>
		<path d="M925.6,266.02v-46.89h7.21c9.6,14.69,23.31,33.94,25.73,38.77h0.12c-0.38-6.1-0.32-13.5-0.32-21.12v-17.65h5.64v46.89
			h-6.82c-6.34-9.36-23.07-34.64-26.12-40.1h-0.12c0.32,6.03,0.32,12.68,0.32,20.97v19.13H925.6z"/>
		<path d="M976.47,219.14h17.54c13.78,0,21.82,9.87,21.82,22.69c0,15.03-9.62,24.2-21.93,24.2h-17.42V219.14z M982.5,260.53h10.18
			c11.3,0,16.75-7.78,16.75-18.51c0-10.85-6.38-17.37-16.28-17.41H982.5V260.53z"/>
		<path d="M1042.96,219.14h17.54c13.78,0,21.82,9.87,21.82,22.69c0,15.03-9.62,24.2-21.93,24.2h-17.42V219.14z M1048.99,260.53
			h10.18c11.3,0,16.75-7.78,16.75-18.51c0-10.85-6.38-17.37-16.28-17.41h-10.64V260.53z"/>
		<path d="M1123.47,244.19h-25.59v16.23h28.23l-0.81,5.6h-33.45v-46.89h32.96v5.6h-26.93v13.86h25.59V244.19z"/>
		<path d="M1137.41,252.39c1.55,5.49,5.21,9.34,13.61,9.34c8.39,0,11.6-3.57,11.6-7.94c0-4.61-2.35-7.45-13.35-9.48
			c-12.83-2.39-15.9-6.81-15.9-13.2c0-8.25,7.12-12.95,16.42-12.95c13.88,0,17.15,7.98,17.63,12.72h-6.11
			c-0.87-3.19-2.68-7.42-11.67-7.42c-6.13,0-10.09,2.3-10.09,7c0,3.83,1.74,6.25,11.43,8.04c15.4,2.88,17.88,8.13,17.88,14.61
			c0,7.47-5.42,13.87-18.26,13.87c-11.92,0-17.95-5.97-19.33-14.6H1137.41z"/>
		<path d="M1184.36,219.14v46.89h-6.03v-46.89H1184.36z"/>
		<path d="M1236.58,266.02h-4.62c-0.2-1.17-0.46-4.86-0.48-6.93c-2.85,5.05-7.19,7.92-15.54,7.92c-13.47,0-21.71-9.73-21.71-24.29
			c0-13.8,8.54-24.57,22.75-24.57c12.77,0,18.23,7.15,19.82,14.06h-6.21c-1.64-4.38-5.35-8.61-13.65-8.61
			c-10.68,0-16.32,8.26-16.32,18.75c0,11.04,5.71,19.19,16.18,19.19c8.91,0,13.95-4.97,13.95-14.2v-1.4h-13.83v-5.56h19.67V266.02z"
			/>
		<path d="M1247.46,266.02v-46.89h7.21c9.6,14.69,23.31,33.94,25.73,38.77h0.12c-0.38-6.1-0.32-13.5-0.32-21.12v-17.65h5.64v46.89
			h-6.82c-6.34-9.36-23.07-34.64-26.12-40.1h-0.12c0.32,6.03,0.32,12.68,0.32,20.97v19.13H1247.46z"/>
	</g>
	<g>
		<path d="M2.53,57.92c27.56,0,55.11,0,83.5,0c0,17.97,0,35.94,0,54.46c-17.97,0-35.94,0-54.46,0c0,25.76,0,51.52,0,78.06
			c-9.58,0-19.17,0-29.04,0c0-33.55,0-67.09,0-101.66c17.37,0,34.74,0,52.64,0c0-3,0-5.99,0-9.08c-17.37,0-34.74,0-52.64,0
			C2.53,72.51,2.53,65.33,2.53,57.92z"/>
		<path d="M136.86,27.06c9.58,0,19.17,0,29.04,0c0,53.91,0,107.83,0,163.38c-22.76,0-45.53,0-68.98,0c0-7.79,0-15.58,0-23.6
			c13.18,0,26.36,0,39.94,0C136.86,120.71,136.86,74.58,136.86,27.06z"/>
		<path d="M96.92,27.06c9.58,0,19.17,0,29.04,0c0,43.73,0,87.46,0,132.52c-9.58,0-19.17,0-29.04,0
			C96.92,115.85,96.92,72.12,96.92,27.06z"/>
		<path d="M42.41,118.79c14.38-0.02,28.75-0.05,43.57-0.07c0.04,23.65,0.07,47.31,0.11,71.68c-14.38,0.02-28.75,0.05-43.57,0.07
			C42.48,166.82,42.45,143.16,42.41,118.79z"/>
		<path d="M2.53,27.06c27.56,0,55.11,0,83.5,0c0,7.19,0,14.38,0,21.78c-27.56,0-55.11,0-83.5,0C2.53,41.65,2.53,34.47,2.53,27.06z"
			/>
	</g>
	<g>
		<path d="M1057.22,186.57l-6.61-0.08l-6.81-0.02c-5.96-0.03-11.91-0.07-17.86-0.13c-5.41-0.05-10.82-0.07-16.24-0.1l-2.02-0.01
			c-11.13-0.06-22.88-0.14-34.93-0.26v-14.65h85.32v-8.96H952.77v-14.65l3.26-0.04c12.74-0.14,25.48-0.3,38.23-0.48
			c6.55-0.09,13.1-0.17,19.65-0.24c6.32-0.07,12.64-0.15,18.97-0.25c3.58-0.05,7.17-0.08,10.76-0.11l6.61-0.11l5.82-0.07
			c5.4-0.18,5.6-0.26,10.75-4.32l3.03-3.72l-104.36,0.4v-10.91h-9.08v-25.53h7.26V36.99h21.78v-5.45h18.34
			c1,11.77,0.91,11.99-3.57,18.5c-4.13,2.79-7.13,3.78-11.41,3.78c-1.69,0-3.53-0.15-5.94-0.38l-0.93-0.09v5.42h23.6v14.64h-23.6
			v7.15h23.61c0.16,9.95,0.16,10.37,0,13.3c-1.36,1.35-1.58,1.36-5.96,1.51l-6.02-0.06l-6.08-0.05l-5.56-0.08v7.2l41.64-0.01V89.93
			l-10.89-0.06V75.11h11.33l0.3-6.87c0.03-0.73-4.83-2.05-8.48-5.7l-3.16-3.16v-2.87c3.29-2.68,3.4-2.75,6.89-5.15l0.84-0.58
			l-7.57-7.57c2.21-4.8,4.56-8.1,8.18-11.48l2.64,1.51c3.08,1.6,4.22,2.19,6.94,2.19c1.19,0,2.66-0.11,4.89-0.26l0.14-0.01
			l0.13-0.05c3.81-1.61,4.03-1.71,6.81-3.35c2.78,2.65,5.58,5.46,8.35,8.36c0,2.96-0.12,3.08-3.4,6.57l-4.17,3.9l7.29,9.11
			c-2.62,2.74-5.41,5.52-8.29,8.28h-4.14v7.15h12.71v14.64h-12.71v12.59h43.45v-7.15h-23.6V80.55h23.6v-7.15h-23.6V58.77h23.6v-7.15
			h-23.6V35.17h43.68v67.17h5.45v25.77l-5.25,0.09l-1.7,5.26c-1.95,3.79-1.95,3.79-10.88,10.94l-1.68,1.35l24.96,1.92v14.7h-32.72
			l0.5,9.63c0.25,4.72,0.25,4.82-0.4,8.96c-5.04,4.84-8.83,5.63-15.85,5.63L1057.22,186.57z M978.3,125.94h106.99v-7.15H978.3
			V125.94z"/>
		<path d="M327.19,184.74c-0.85,0-1.72-0.02-2.64-0.04c-0.6-0.01-1.23-0.03-1.87-0.03l-7.15-0.05l-7.46-0.14
			c-2.52-0.03-5.03-0.05-7.54-0.07c-5.72-0.06-11.64-0.14-17.6-0.25V169.5h38.12v-9.93H277.6v24.56h-18.27v-29.04h-14.52v-18.27
			h10.89v-70.8h32.68v-9.08h21.9v9.08h29.06c0.23,9.73,0.38,17.74,0.48,25.13c0.05,2.95,0.11,5.9,0.19,8.84
			c0.11,4.31,0.16,8.65,0.2,12.69l0.14,4c0,6.1-0.41,9.11-4.51,14c-5.44,2.84-9.17,3.35-14.94,3.35c-0.82,0-1.68-0.01-2.59-0.03
			l-3.63-0.03c-3.64-0.04-7.15-0.12-11.36-0.22c-2.59-0.04-5.17-0.07-7.76-0.1c-5.52-0.07-11.44-0.18-18.07-0.33v-16.47h43.57v-8.96
			h-47.08v34.38h65.37l0.33,17.88l0.15,5.89l0.04,4.64l0.09,4.69c-0.57,3.8-0.59,3.89-2.39,6.8
			C334.12,184.32,331.14,184.74,327.19,184.74z M273.97,91.45h47.08V80.67h-47.08V91.45z"/>
		<path d="M1132.49,189.58V33.36h50.96c0.14,9.04,0.23,16.49,0.29,23.38c0.03,2.75,0.06,5.49,0.11,8.24
			c0.07,3.95,0.1,7.91,0.12,11.86l0.09,7.21c-0.66,6.92-2.52,11.17-5.95,17.02l-0.32,0.54l3.05,3.34c3.28,5.16,3.27,8.33,3.25,14.61
			l0,6.9l-0.09,6.79l0.02,6.81c-0.11,18.54-0.11,18.72-3.95,24.31c-6.11,3.27-11.69,5.45-18.93,5.45c-1.18,0-2.42-0.06-3.7-0.17
			c-1.36-1.37-1.37-1.56-1.53-5.58l0.07-5.51l0.05-5.77l0.05-3.45l7.27-1.82v-36.06l-12.59-0.1v78.21H1132.49z M1150.75,91.45h14.41
			V51.62h-14.41V91.45z"/>
		<path d="M451.75,189.58v-61.72h-30.86V109.6h30.86V95.19h-34.49v-18.3l13.1-0.13l-3.19-7.04c-2.5-6.14-2.64-6.49-2.65-10.94h20.36
			l7.26,18.15h17.44l9.08-18.15h20.08c-2.33,7.09-3.8,11.1-6.15,16.8l-0.64,1.67l12.55,0.15v17.8h-34.49v14.41h32.68v18.27h-32.68
			v61.72H451.75z"/>
		<path d="M736.83,187.35c-5.88,0-7.65-1.2-12.25-4.42c-3.33-3.93-5.77-7.35-7.91-11.08l-0.61-1.06l-3.04,3.66l-3.21,3.82
			l-2.68,3.21c-2.56,2.77-2.6,2.81-5.93,4.47c-3.6,0.09-7.22,0.13-10.79,0.13c-1.55,0-3.1-0.01-4.65-0.03l-4.42-0.02
			c-3.31-0.02-6.63-0.05-9.95-0.08v-18.3l3.75-0.12l6-0.31l5.93-0.25c5.66-0.7,5.83-0.78,9.41-4.52l0.1-0.1l0.06-0.13
			c2.54-5.48,1.78-8.12,0.25-13.39l-0.15-0.51l-0.07-0.1c-2.33-3.65-2.38-3.71-5.44-6.97l-3.19-3.61l-3.37-3.71l-3.38-3.8
			c-2.57-2.89-5.16-5.77-7.76-8.64c2.84-2.83,3.12-2.87,7.55-3.28c16.01,0.63,16.07,0.63,22.3,5.42c3.3,3.84,5.91,7.33,8.19,10.98
			l0.64,1.02l16.33-20.41l-57.15-1.84V95.08h81.8c0,23.29-0.08,23.38-6.37,30.7l-4,4.9l-3.95,4.76c-2.33,3.34-4.41,6.43-6.41,9.5
			l-2.66,4.05l-2.15,3.3l0.25,0.45c3.2,5.79,5.15,8.99,11.16,13l0.15,0.1l0.17,0.03c4.58,0.84,9.22,1.22,13.71,1.6
			c0.64,0.05,1.29,0.11,1.93,0.16v18.41C746.1,186.86,740.64,187.35,736.83,187.35z"/>
		<path d="M684.59,89.92c-0.78,0-1.59-0.02-2.43-0.03c-0.59-0.01-1.21-0.02-1.84-0.03l-5.52-0.05l-3.4-0.05V73.41h-74.43V55.14
			h74.54v16.34h7.15V29.72c8.99-0.04,17.98-0.08,26.97-0.1c3.16-0.01,6.32-0.02,9.47-0.04c4.53-0.02,9.06-0.03,13.58-0.04l4.31-0.03
			c3.33,0,6.67,0.09,9.8,0.19c1.35,1.36,1.36,1.52,1.54,4.57l-0.03,4.53l-0.02,4.95l-0.05,5.2l-0.02,5.23
			c-0.02,4.27-0.05,8.54-0.09,12.81l-0.01,0.86h10.9v18.31c-3.38,0.16-7.03,0.29-11.43,0.42l-6.84,0.25
			c-5.94-0.67-6.03-0.69-10.11-3.14c-3.68-6.07-3.43-11.54-3.12-18.45l0.06-1.37l0.1-4.38c0.09-3.66,0.22-7.26,0.35-10.6l0.04-0.88
			h-25.36l0.22,7.31l0.15,8.42l0.14,4.24c0.1,7.98-0.23,13.34-5.62,20.14C690.5,89.62,687.85,89.92,684.59,89.92z"/>
		<polygon points="883.79,187.77 883.79,107.9 856.56,107.9 856.56,89.63 883.79,89.63 883.79,27.91 903.87,27.91 903.87,89.63 
			932.92,89.63 932.92,107.9 903.87,107.9 903.87,187.77 		"/>
		<path d="M512.45,186.45c-1.8,0-3.74-0.14-5.79-0.29c-0.73-0.05-1.48-0.11-2.27-0.16v-18.32h3.63V36.99h45.23l1.82-9.08h18.46
			c0.83,17.43,0.78,17.67-3.08,23.25c-5.73,3.57-10.21,4.27-16,4.27l-4.91-0.02l-4.58-0.05l-4.65-0.03
			c-3.78-0.02-7.56-0.05-11.35-0.09l-0.87-0.01l0.07,5.51c0.18,14.63,0.32,29.19,0.41,43.26c0.06,8.61,0.12,15.68,0.21,22.25
			c0.09,6.78,0.15,13.8,0.18,21.46c0.02,2.74,0.05,5.47,0.1,8.2c0.07,4.02,0.07,8.05,0.07,11.46l0.06,6.52
			c-1.02,5.19-1.05,5.24-5.09,9.31C519.44,186.06,515.75,186.45,512.45,186.45z"/>
		<path d="M1261.17,186.3c-9.65,0-10.48-0.44-16.46-3.81c-3.33-3.32-3.33-3.37-3.71-8.59l0.06-7.02l0.02-3.77
			c0.02-3.97,0.07-7.95,0.11-11.92l0.05-8.09c0.04-6.25,0.1-12.49,0.17-18.74l0.02-1.94h-54.47v-18.27h99.96v18.27h-23.6v45.27
			h25.41v18.28c-5.58,0.09-11.16,0.16-16.74,0.21l-5.02,0.09C1264.73,186.29,1262.82,186.3,1261.17,186.3z"/>
		<path d="M373.62,187.93l-4.63-0.05l-4.68-0.02c-3.53-0.02-7.06-0.05-10.59-0.08V169.5h23.6V29.73h20.09
			c0.21,19.62,0.37,38.76,0.46,56.91c0.05,10.31,0.12,18.83,0.21,26.82c0.09,8.16,0.15,16.62,0.18,25.88
			c0.02,3.3,0.05,6.59,0.1,9.88c0.07,4.85,0.07,9.71,0.07,13.82l0.1,4.14c-0.07,6.92-0.77,9.79-5.26,15.29
			c-5.44,4.32-7.92,5.49-14.77,5.49L373.62,187.93z"/>
		<path d="M827.44,186.11l-4.62-0.05l-4.68-0.02c-3.53-0.02-7.06-0.05-10.59-0.08v-18.27h21.78v-19.92l-27.14,0.17l0.09,10.05
			l0.05,9.65l0.05,4.94l0.02,4.69l0.03,4.35c-0.17,2.83-0.18,2.98-1.52,4.33h-18.76v-56.39h67.29l0.44,23.22l0.2,7.56l0.06,5.96
			l0.11,6.04c-0.96,6.09-2.68,7.93-7.69,11.92c-3.52,1.75-5.72,1.87-8.91,1.87C833.16,186.14,827.44,186.11,827.44,186.11z"/>
		<path d="M645.75,186.11l-4.58-0.05l-4.65-0.02c-3.5-0.02-7-0.05-10.5-0.08v-18.27h21.78v-20.01l-27.12,0.1v38.18h-18.27v-56.39
			h65.48l0.33,23.21l0.15,7.56l0.04,5.96l0.08,6.06c-0.66,5.65-1.74,7.92-5.67,11.88c-4.43,1.46-7.15,1.89-12,1.89L645.75,186.11z"
			/>
		<polygon points="547.96,189.58 547.96,89.74 533.44,89.74 533.44,73.29 577.12,73.29 577.12,89.74 568.04,89.74 568.04,189.58 		
			"/>
		<rect x="350.1" y="40.62" width="20.08" height="119.92"/>
		<path d="M1186.94,67.97V38.8h36.31V27.91h25.53V38.8h34.49v29.16h-20.08V55.25h-54.34v11.39c-1.34,1.33-1.58,1.34-5.92,1.49
			L1186.94,67.97z"/>
		<path d="M257.58,61.57c-3.15,0-6.37-0.28-9.49-0.54c-1.11-0.09-2.2-0.19-3.28-0.27V44.21l9.55-0.49l0.07-0.02
			c4.91-1.14,5.1-1.25,9.53-6.04c5.78-4.9,10.25-5.44,18.39-5.44l3.83-0.01c2.55,0,5.09,0.03,7.64,0.07
			c1.73,0.03,3.46,0.04,5.19,0.04c2.18,0,4.35-0.02,6.53-0.04c2.48,0.01,4.97,0.03,7.46,0.05l6.75,0.06
			c6.43,1.08,8.13,2.77,12.5,7.93l0.16,0.18l0.23,0.08c3.91,1.26,3.98,1.27,7.95,1.4l5.98,0.4v16.55
			c-3.02,0.15-6.32,0.29-10.29,0.41l-6.2,0.25c-5.95-0.68-5.97-0.69-11.05-4.16c-6.28-4.1-11.16-4.87-17.98-4.87
			c-1.06,0-2.17,0.02-3.34,0.04l-4.17,0.03c-9.99,0.33-15.52,2.32-22.75,8.19C267.31,60.7,263.11,61.57,257.58,61.57z"/>
		<rect x="1190.57" y="73.29" width="90.88" height="18.27"/>
		<polygon points="419.08,55.25 419.08,38.8 449.94,38.8 449.94,27.91 471.83,27.91 471.83,38.8 504.51,38.8 504.51,55.25 		"/>
		<rect x="774.87" y="55.14" width="81.8" height="18.27"/>
		<path d="M1201.71,183.03c-1.39,0-2.8-0.05-4.33-0.14l-3.84-0.12c-2.87-0.1-5.72-0.25-8.41-0.4v-16.5h14.39l0.79-4.5
			c1.99-11.14,4.09-21.55,6.43-31.81h21.93c-1.46,9.27-3.42,21.24-5.85,33.36l-1.1,5.66c-2.33,6.3-4.72,9.43-10.53,13.77
			C1207.48,182.83,1204.64,183.03,1201.71,183.03z"/>
		<path d="M780.32,98.82c0-9.35,0.04-14.1,1.43-16.36c1.26-2.04,3.88-2.14,10.21-2.16l4.52,0.01l6.31-0.01c2.66,0,5.33,0,7.99,0.01
			l4.49,0c3.47,0,6.93-0.01,10.4-0.01l9.39,0.01l4.53-0.01c9.62,0.04,10.09,0.04,11.64,1.57v16.95H780.32z"/>
		<rect x="600.61" y="105.97" width="67.28" height="18.27"/>
		<rect x="600.61" y="80.55" width="67.28" height="18.27"/>
		<rect x="780.32" y="105.97" width="70.91" height="16.45"/>
		<rect x="783.95" y="31.54" width="65.46" height="16.45"/>
		<rect x="604.24" y="31.54" width="60.02" height="16.45"/>
		<path d="M429.01,182.78c-0.93,0-1.91-0.04-3-0.08l-8.75-0.34v-16.67l7.18-1.8l0.8-6.41l0.97-7.56l0.48-3.85
			c1.17-9.05,1.22-9.42,2.95-12.88h18.49c-4.27,37.65-4.34,37.87-11.04,47.1C434.18,182.37,431.91,182.78,429.01,182.78z"/>
		<path d="M489.53,181.04c-3.77-0.49-3.84-0.51-6.61-2.42c-7.82-11.04-8.57-28.02-9.18-41.68c-0.06-1.27-0.11-2.52-0.17-3.74h16.68
			c3.52,9.15,4.4,17.86,5.18,28.26l0.06,0.79h5.38v18.3L489.53,181.04z"/>
	</g>
</g>
</svg>
